<svg xmlns="http://www.w3.org/2000/svg" xmlns:xlink="http://www.w3.org/1999/xlink" version="1.1" style="shape-rendering:geometricPrecision; text-rendering:geometricPrecision; image-rendering:optimizeQuality; fill-rule:evenodd; clip-rule:evenodd" viewBox="178.5 538.12 1527.06 314.78">
<g><path style="opacity:1" fill="#7dcdec" d="M 178.5,538.5 C 197.23,536.892 214.897,540.392 231.5,549C 241.292,556.479 247.459,566.312 250,578.5C 251.045,585.125 251.711,591.792 252,598.5C 252.333,614.833 252.667,631.167 253,647.5C 254.848,659.704 261.682,667.537 273.5,671C 282.04,673.076 290.706,673.909 299.5,673.5C 299.5,680.5 299.5,687.5 299.5,694.5C 286.539,693.374 274.206,695.54 262.5,701C 256.849,705.467 253.683,711.301 253,718.5C 252.866,746.518 252.2,774.518 251,802.5C 248.75,822.733 238.25,836.566 219.5,844C 206.07,847.585 192.403,849.085 178.5,848.5C 178.5,841.5 178.5,834.5 178.5,827.5C 190.945,828.264 202.612,825.764 213.5,820C 220.398,814.039 224.565,806.539 226,797.5C 226.333,774.167 226.667,750.833 227,727.5C 226.654,704.038 237.82,690.038 260.5,685.5C 260.5,684.5 260.5,683.5 260.5,682.5C 240.396,679.56 229.229,667.893 227,647.5C 226.667,629.167 226.333,610.833 226,592.5C 225.007,578.522 218.174,568.689 205.5,563C 196.656,560.702 187.656,559.536 178.5,559.5C 178.5,552.5 178.5,545.5 178.5,538.5 Z"/></g>
<g><path style="opacity:1" fill="#7dcdec" d="M 435.5,538.5 C 441.833,538.5 448.167,538.5 454.5,538.5C 454.5,545.5 454.5,552.5 454.5,559.5C 442.055,558.736 430.388,561.236 419.5,567C 412.387,572.384 408.221,579.551 407,588.5C 406.84,609.188 406.173,629.855 405,650.5C 401.35,669.136 390.183,680.136 371.5,683.5C 393.125,687.967 404.625,701.3 406,723.5C 406.333,747.833 406.667,772.167 407,796.5C 409.272,812.772 418.439,822.605 434.5,826C 441.146,826.831 447.813,827.331 454.5,827.5C 454.5,834.5 454.5,841.5 454.5,848.5C 437.109,849.699 420.442,846.866 404.5,840C 391.335,831.467 383.835,819.3 382,803.5C 380.769,775.855 380.102,748.188 380,720.5C 376.323,704.506 366.156,696.006 349.5,695C 344.177,694.501 338.844,694.334 333.5,694.5C 333.5,687.5 333.5,680.5 333.5,673.5C 346.482,674.781 358.816,672.614 370.5,667C 376.151,662.533 379.317,656.699 380,649.5C 380.134,627.477 380.8,605.477 382,583.5C 384.712,563.804 395.212,550.304 413.5,543C 420.859,540.945 428.193,539.445 435.5,538.5 Z"/></g>
<g><path style="opacity:1" fill="#010101" d="M 324.5,770.5 C 324.5,771.5 324.5,772.5 324.5,773.5C 323.167,773.5 321.833,773.5 320.5,773.5C 320.719,772.325 320.386,771.325 319.5,770.5C 318.534,772.396 318.201,774.396 318.5,776.5C 317.5,776.5 316.5,776.5 315.5,776.5C 315.183,779.572 315.516,782.572 316.5,785.5C 317.466,783.604 317.799,781.604 317.5,779.5C 318.833,779.5 320.167,779.5 321.5,779.5C 321.5,780.5 321.5,781.5 321.5,782.5C 322.5,782.5 323.5,782.5 324.5,782.5C 324.5,784.5 324.5,786.5 324.5,788.5C 325.5,788.5 326.5,788.5 327.5,788.5C 327.5,789.833 327.5,791.167 327.5,792.5C 328.5,792.5 329.5,792.5 330.5,792.5C 330.5,794.5 330.5,796.5 330.5,798.5C 329.5,798.5 328.5,798.5 327.5,798.5C 327.5,800.5 327.5,802.5 327.5,804.5C 326.5,804.5 325.5,804.5 324.5,804.5C 324.5,802.5 324.5,800.5 324.5,798.5C 323.167,798.5 321.833,798.5 320.5,798.5C 320.719,797.325 320.386,796.325 319.5,795.5C 318.534,797.396 318.201,799.396 318.5,801.5C 317.5,801.5 316.5,801.5 315.5,801.5C 315.5,802.5 315.5,803.5 315.5,804.5C 313.167,804.5 310.833,804.5 308.5,804.5C 308.5,803.5 308.5,802.5 308.5,801.5C 310.5,801.5 312.5,801.5 314.5,801.5C 314.5,800.5 314.5,799.5 314.5,798.5C 313.5,798.5 312.5,798.5 311.5,798.5C 311.5,797.5 311.5,796.5 311.5,795.5C 310.5,795.5 309.5,795.5 308.5,795.5C 308.5,793.5 308.5,791.5 308.5,789.5C 306.5,789.5 304.5,789.5 302.5,789.5C 302.5,788.167 302.5,786.833 302.5,785.5C 303.5,785.5 304.5,785.5 305.5,785.5C 305.5,782.5 305.5,779.5 305.5,776.5C 304.5,776.5 303.5,776.5 302.5,776.5C 302.5,773.5 302.5,770.5 302.5,767.5C 303.5,767.5 304.5,767.5 305.5,767.5C 305.5,766.5 305.5,765.5 305.5,764.5C 304.5,764.5 303.5,764.5 302.5,764.5C 302.5,763.167 302.5,761.833 302.5,760.5C 303.5,760.5 304.5,760.5 305.5,760.5C 305.5,759.5 305.5,758.5 305.5,757.5C 304.5,757.5 303.5,757.5 302.5,757.5C 302.5,756.5 302.5,755.5 302.5,754.5C 303.5,754.5 304.5,754.5 305.5,754.5C 305.5,753.5 305.5,752.5 305.5,751.5C 304.5,751.5 303.5,751.5 302.5,751.5C 302.5,747.167 302.5,742.833 302.5,738.5C 306.5,737.833 306.5,737.167 302.5,736.5C 302.5,735.167 302.5,733.833 302.5,732.5C 303.5,732.5 304.5,732.5 305.5,732.5C 305.5,731.5 305.5,730.5 305.5,729.5C 304.5,729.5 303.5,729.5 302.5,729.5C 302.5,725.5 302.5,721.5 302.5,717.5C 303.5,717.5 304.5,717.5 305.5,717.5C 305.5,715.5 305.5,713.5 305.5,711.5C 304.5,711.5 303.5,711.5 302.5,711.5C 302.5,697.833 302.5,684.167 302.5,670.5C 294.493,670.666 286.493,670.5 278.5,670C 273.12,669.14 268.453,666.974 264.5,663.5C 264.027,662.094 263.027,661.427 261.5,661.5C 257.628,656.9 255.295,651.567 254.5,645.5C 295.828,644.5 337.161,644.167 378.5,644.5C 378.152,659.016 370.818,667.516 356.5,670C 347.84,670.5 339.173,670.666 330.5,670.5C 330.5,673.5 330.5,676.5 330.5,679.5C 329.5,679.5 328.5,679.5 327.5,679.5C 327.5,680.5 327.5,681.5 327.5,682.5C 328.5,682.5 329.5,682.5 330.5,682.5C 330.5,690.833 330.5,699.167 330.5,707.5C 329.5,707.5 328.5,707.5 327.5,707.5C 327.5,708.5 327.5,709.5 327.5,710.5C 328.5,710.5 329.5,710.5 330.5,710.5C 330.5,716.833 330.5,723.167 330.5,729.5C 329.5,729.5 328.5,729.5 327.5,729.5C 327.5,730.5 327.5,731.5 327.5,732.5C 328.5,732.5 329.5,732.5 330.5,732.5C 330.5,736.833 330.5,741.167 330.5,745.5C 329.5,745.5 328.5,745.5 327.5,745.5C 327.5,746.5 327.5,747.5 327.5,748.5C 328.5,748.5 329.5,748.5 330.5,748.5C 330.5,751.5 330.5,754.5 330.5,757.5C 329.5,757.5 328.5,757.5 327.5,757.5C 327.5,759.5 327.5,761.5 327.5,763.5C 328.5,763.5 329.5,763.5 330.5,763.5C 330.5,764.833 330.5,766.167 330.5,767.5C 329.5,767.5 328.5,767.5 327.5,767.5C 327.5,768.5 327.5,769.5 327.5,770.5C 326.5,770.5 325.5,770.5 324.5,770.5 Z M 308.5,739.5 C 309.5,739.5 310.5,739.5 311.5,739.5C 311.5,740.5 311.5,741.5 311.5,742.5C 310.5,742.5 309.5,742.5 308.5,742.5C 308.5,741.5 308.5,740.5 308.5,739.5 Z M 324.5,770.5 C 323.5,770.5 322.5,770.5 321.5,770.5C 321.5,767.5 321.5,764.5 321.5,761.5C 322.5,761.5 323.5,761.5 324.5,761.5C 324.5,764.5 324.5,767.5 324.5,770.5 Z M 315.5,764.5 C 316.693,764.97 317.36,765.97 317.5,767.5C 317.167,768.5 316.833,769.5 316.5,770.5C 315.534,768.604 315.201,766.604 315.5,764.5 Z M 305.5,776.5 C 305.5,774.5 305.5,772.5 305.5,770.5C 306.5,770.5 307.5,770.5 308.5,770.5C 308.5,771.5 308.5,772.5 308.5,773.5C 310.5,773.5 312.5,773.5 314.5,773.5C 314.5,774.5 314.5,775.5 314.5,776.5C 311.5,776.5 308.5,776.5 305.5,776.5 Z M 311.5,795.5 C 311.5,792.5 311.5,789.5 311.5,786.5C 312.5,786.5 313.5,786.5 314.5,786.5C 314.5,789.5 314.5,792.5 314.5,795.5C 313.5,795.5 312.5,795.5 311.5,795.5 Z M 327.5,792.5 C 327.5,793.5 327.5,794.5 327.5,795.5C 325.5,795.5 323.5,795.5 321.5,795.5C 321.5,793.5 321.5,791.5 321.5,789.5C 322.5,789.5 323.5,789.5 324.5,789.5C 324.5,790.5 324.5,791.5 324.5,792.5C 325.5,792.5 326.5,792.5 327.5,792.5 Z"/></g>
<g><path style="opacity:1" fill="#000000" d="M 473.5,648.5 C 488.788,649.062 494.288,656.729 490,671.5C 481,680.833 472,680.833 463,671.5C 459.014,660.15 462.514,652.484 473.5,648.5 Z"/></g>
<g><path style="opacity:1" fill="#000000" d="M 1443.5,648.5 C 1460.38,649.585 1465.54,657.918 1459,673.5C 1453.16,678.252 1446.66,679.418 1439.5,677C 1431.93,671.966 1429.77,665.133 1433,656.5C 1435.27,652.044 1438.77,649.378 1443.5,648.5 Z"/></g>
<g><path style="opacity:1" fill="#000000" d="M 1017.5,651.5 C 1059.17,651.5 1100.83,651.5 1142.5,651.5C 1142.5,658.833 1142.5,666.167 1142.5,673.5C 1109.83,673.5 1077.17,673.5 1044.5,673.5C 1044.5,694.5 1044.5,715.5 1044.5,736.5C 1072.83,736.5 1101.17,736.5 1129.5,736.5C 1129.5,743.833 1129.5,751.167 1129.5,758.5C 1101.17,758.5 1072.83,758.5 1044.5,758.5C 1044.5,781.5 1044.5,804.5 1044.5,827.5C 1077.5,827.5 1110.5,827.5 1143.5,827.5C 1143.5,834.833 1143.5,842.167 1143.5,849.5C 1101.5,849.5 1059.5,849.5 1017.5,849.5C 1017.5,783.5 1017.5,717.5 1017.5,651.5 Z"/></g>
<g><path style="opacity:1" fill="#000000" d="M 1253.5,651.5 C 1304.5,651.5 1355.5,651.5 1406.5,651.5C 1406.5,658.833 1406.5,666.167 1406.5,673.5C 1385.5,673.5 1364.5,673.5 1343.5,673.5C 1343.5,732.167 1343.5,790.833 1343.5,849.5C 1334.5,849.5 1325.5,849.5 1316.5,849.5C 1316.5,790.833 1316.5,732.167 1316.5,673.5C 1295.5,673.5 1274.5,673.5 1253.5,673.5C 1253.5,666.167 1253.5,658.833 1253.5,651.5 Z"/></g>
<g><path style="opacity:1" fill="#4e4e4e" d="M 261.5,661.5 C 263.027,661.427 264.027,662.094 264.5,663.5C 262.973,663.573 261.973,662.906 261.5,661.5 Z"/></g>
<g><path style="opacity:1" fill="#000000" d="M 588.5,699.5 C 603.019,698.113 616.352,701.28 628.5,709C 632.846,712.867 636.346,717.367 639,722.5C 653.071,704.468 671.571,696.968 694.5,700C 717.537,702.704 730.704,715.537 734,738.5C 735.426,775.478 735.926,812.478 735.5,849.5C 726.833,849.5 718.167,849.5 709.5,849.5C 709.939,813.474 709.439,777.474 708,741.5C 705.945,731.778 700.112,725.611 690.5,723C 668.988,717.672 654.155,725.172 646,745.5C 644.527,780.118 644.027,814.785 644.5,849.5C 635.833,849.5 627.167,849.5 618.5,849.5C 618.968,812.793 618.468,776.126 617,739.5C 611.459,726.799 601.626,720.799 587.5,721.5C 572.231,721.207 561.398,727.874 555,741.5C 554.5,777.498 554.333,813.498 554.5,849.5C 545.833,849.5 537.167,849.5 528.5,849.5C 528.5,800.5 528.5,751.5 528.5,702.5C 536.833,702.5 545.167,702.5 553.5,702.5C 553.334,707.511 553.501,712.511 554,717.5C 563.4,707.384 574.9,701.384 588.5,699.5 Z"/></g>
<g><path style="opacity:1" fill="#000000" d="M 822.5,699.5 C 861.942,697.798 884.442,716.465 890,755.5C 890.832,764.819 891.332,774.152 891.5,783.5C 858.5,783.5 825.5,783.5 792.5,783.5C 794.395,817.904 812.395,833.404 846.5,830C 857.564,826.756 866.564,820.59 873.5,811.5C 879.263,815.094 884.596,819.261 889.5,824C 870.068,849.368 844.735,858.034 813.5,850C 783.319,839.79 767.485,818.623 766,786.5C 762.867,758.901 770.7,735.068 789.5,715C 799.304,707.096 810.304,701.929 822.5,699.5 Z M 828.5,720.5 C 845.405,720.532 856.571,728.532 862,744.5C 863.818,750.38 864.985,756.38 865.5,762.5C 841.158,762.833 816.824,762.5 792.5,761.5C 794.422,747.821 800.422,736.321 810.5,727C 816.169,723.503 822.169,721.336 828.5,720.5 Z"/></g>
<g><path style="opacity:1" fill="#000000" d="M 972.5,699.5 C 978.826,699.126 984.993,699.793 991,701.5C 991.5,709.493 991.666,717.493 991.5,725.5C 975.264,721.679 961.431,725.679 950,737.5C 948.414,739.67 947.08,742.004 946,744.5C 945.5,779.498 945.333,814.498 945.5,849.5C 936.833,849.5 928.167,849.5 919.5,849.5C 919.5,800.5 919.5,751.5 919.5,702.5C 927.833,702.5 936.167,702.5 944.5,702.5C 944.671,707.196 945.171,711.863 946,716.5C 952.694,707.408 961.528,701.742 972.5,699.5 Z"/></g>
<g><path style="opacity:1" fill="#000000" d="M 1224.5,699.5 C 1230.83,699.126 1236.99,699.793 1243,701.5C 1243.5,709.493 1243.67,717.493 1243.5,725.5C 1227.26,721.679 1213.43,725.679 1202,737.5C 1200.41,739.67 1199.08,742.004 1198,744.5C 1197.5,779.498 1197.33,814.498 1197.5,849.5C 1188.83,849.5 1180.17,849.5 1171.5,849.5C 1171.5,800.5 1171.5,751.5 1171.5,702.5C 1179.83,702.5 1188.17,702.5 1196.5,702.5C 1196.67,707.196 1197.17,711.863 1198,716.5C 1204.69,707.408 1213.53,701.742 1224.5,699.5 Z"/></g>
<g><path style="opacity:1" fill="#000000" d="M 1558.5,699.5 C 1572.45,698.267 1585.45,701.1 1597.5,708C 1602.48,711.97 1606.31,716.803 1609,722.5C 1623.16,704.681 1641.66,697.181 1664.5,700C 1690.01,703.183 1703.51,717.683 1705,743.5C 1705.5,778.832 1705.67,814.165 1705.5,849.5C 1696.83,849.5 1688.17,849.5 1679.5,849.5C 1679.97,813.126 1679.47,776.793 1678,740.5C 1673.55,726.844 1664.05,720.511 1649.5,721.5C 1632.05,721.469 1620.89,729.802 1616,746.5C 1614.54,780.798 1614.04,815.131 1614.5,849.5C 1606.17,849.5 1597.83,849.5 1589.5,849.5C 1589.94,813.808 1589.44,778.141 1588,742.5C 1583.47,727.887 1573.47,720.887 1558,721.5C 1542.68,721.167 1531.68,727.833 1525,741.5C 1524.5,777.498 1524.33,813.498 1524.5,849.5C 1515.83,849.5 1507.17,849.5 1498.5,849.5C 1498.5,800.5 1498.5,751.5 1498.5,702.5C 1506.83,702.5 1515.17,702.5 1523.5,702.5C 1523.06,707.361 1523.56,712.028 1525,716.5C 1534.27,706.948 1545.44,701.281 1558.5,699.5 Z"/></g>
<g><path style="opacity:1" fill="#000000" d="M 463.5,702.5 C 472.167,702.5 480.833,702.5 489.5,702.5C 489.5,751.5 489.5,800.5 489.5,849.5C 480.833,849.5 472.167,849.5 463.5,849.5C 463.5,800.5 463.5,751.5 463.5,702.5 Z"/></g>
<g><path style="opacity:1" fill="#000000" d="M 1433.5,702.5 C 1442.17,702.5 1450.83,702.5 1459.5,702.5C 1459.5,751.5 1459.5,800.5 1459.5,849.5C 1450.83,849.5 1442.17,849.5 1433.5,849.5C 1433.5,800.5 1433.5,751.5 1433.5,702.5 Z"/></g>
<g><path style="opacity:1" fill="#000000" d="M 324.5,773.5 C 326.5,773.5 328.5,773.5 330.5,773.5C 330.5,775.5 330.5,777.5 330.5,779.5C 329.5,779.5 328.5,779.5 327.5,779.5C 327.5,778.5 327.5,777.5 327.5,776.5C 326.5,776.5 325.5,776.5 324.5,776.5C 324.5,775.5 324.5,774.5 324.5,773.5 Z"/></g>
<g><path style="opacity:1" fill="#000000" d="M 305.5,804.5 C 304.5,804.5 303.5,804.5 302.5,804.5C 302.5,803.5 302.5,802.5 302.5,801.5C 303.5,801.5 304.5,801.5 305.5,801.5C 305.5,802.5 305.5,803.5 305.5,804.5 Z"/></g>
<g><path style="opacity:1" fill="#000000" d="M 305.5,804.5 C 306.5,804.5 307.5,804.5 308.5,804.5C 308.5,805.5 308.5,806.5 308.5,807.5C 307.5,807.5 306.5,807.5 305.5,807.5C 305.5,806.5 305.5,805.5 305.5,804.5 Z"/></g>
<g><path style="opacity:1" fill="#000000" d="M 324.5,804.5 C 324.5,806.5 324.5,808.5 324.5,810.5C 325.5,810.5 326.5,810.5 327.5,810.5C 327.5,811.833 327.5,813.167 327.5,814.5C 326.5,814.5 325.5,814.5 324.5,814.5C 324.5,813.5 324.5,812.5 324.5,811.5C 321.167,811.5 317.833,811.5 314.5,811.5C 314.5,810.167 314.5,808.833 314.5,807.5C 315.5,807.5 316.5,807.5 317.5,807.5C 317.5,806.5 317.5,805.5 317.5,804.5C 319.833,804.5 322.167,804.5 324.5,804.5 Z"/></g>
<g><path style="opacity:1" fill="#000000" d="M 308.5,810.5 C 309.5,810.5 310.5,810.5 311.5,810.5C 311.5,811.5 311.5,812.5 311.5,813.5C 312.833,813.5 314.167,813.5 315.5,813.5C 315.5,814.833 315.5,816.167 315.5,817.5C 314.167,817.5 312.833,817.5 311.5,817.5C 311.5,816.5 311.5,815.5 311.5,814.5C 310.5,814.5 309.5,814.5 308.5,814.5C 308.5,813.167 308.5,811.833 308.5,810.5 Z"/></g>
<g><path style="opacity:1" fill="#000000" d="M 317.5,813.5 C 318.833,813.5 320.167,813.5 321.5,813.5C 321.5,814.833 321.5,816.167 321.5,817.5C 320.167,817.5 318.833,817.5 317.5,817.5C 317.5,816.167 317.5,814.833 317.5,813.5 Z"/></g>
<g><path style="opacity:1" fill="#000000" d="M 302.5,817.5 C 304.5,817.5 306.5,817.5 308.5,817.5C 308.5,819.5 308.5,821.5 308.5,823.5C 307.5,823.5 306.5,823.5 305.5,823.5C 305.5,822.5 305.5,821.5 305.5,820.5C 304.5,820.5 303.5,820.5 302.5,820.5C 302.5,819.5 302.5,818.5 302.5,817.5 Z"/></g>
<g><path style="opacity:1" fill="#000000" d="M 324.5,826.5 C 323.5,826.5 322.5,826.5 321.5,826.5C 321.5,827.5 321.5,828.5 321.5,829.5C 320.167,829.5 318.833,829.5 317.5,829.5C 317.5,828.5 317.5,827.5 317.5,826.5C 318.5,826.5 319.5,826.5 320.5,826.5C 320.5,825.5 320.5,824.5 320.5,823.5C 321.833,823.5 323.167,823.5 324.5,823.5C 324.5,824.5 324.5,825.5 324.5,826.5 Z"/></g>
<g><path style="opacity:1" fill="#000000" d="M 308.5,826.5 C 309.5,826.5 310.5,826.5 311.5,826.5C 311.5,828.5 311.5,830.5 311.5,832.5C 310.5,832.5 309.5,832.5 308.5,832.5C 308.5,830.5 308.5,828.5 308.5,826.5 Z"/></g>
<g><path style="opacity:1" fill="#000000" d="M 324.5,826.5 C 325.5,826.5 326.5,826.5 327.5,826.5C 327.5,828.5 327.5,830.5 327.5,832.5C 326.5,832.5 325.5,832.5 324.5,832.5C 324.5,830.5 324.5,828.5 324.5,826.5 Z"/></g>
<g><path style="opacity:1" fill="#000000" d="M 305.5,835.5 C 306.5,835.5 307.5,835.5 308.5,835.5C 308.5,836.833 308.5,838.167 308.5,839.5C 307.5,839.5 306.5,839.5 305.5,839.5C 305.5,838.167 305.5,836.833 305.5,835.5 Z"/></g>
<g><path style="opacity:1" fill="#000000" d="M 314.5,835.5 C 315.833,835.5 317.167,835.5 318.5,835.5C 318.5,836.833 318.5,838.167 318.5,839.5C 317.167,839.5 315.833,839.5 314.5,839.5C 314.5,838.167 314.5,836.833 314.5,835.5 Z"/></g>
</svg>