<svg xmlns="http://www.w3.org/2000/svg" xmlns:xlink="http://www.w3.org/1999/xlink" version="1.1" style="shape-rendering:geometricPrecision; text-rendering:geometricPrecision; image-rendering:optimizeQuality; fill-rule:evenodd; clip-rule:evenodd" viewBox="217.5 538.77 1527.06 344.41">
<g><path style="opacity:1" fill="#7dcdec" d="M 217.5,539.5 C 236.677,537.286 255.01,540.12 272.5,548C 287.192,557.541 295.692,571.041 298,588.5C 299.247,611.805 299.914,635.138 300,658.5C 303.458,676.285 314.291,686.118 332.5,688C 338.825,688.5 345.158,688.666 351.5,688.5C 351.5,696.167 351.5,703.833 351.5,711.5C 339.948,711.538 328.615,713.038 317.5,716C 306.671,720.509 300.838,728.676 300,740.5C 299.667,768.5 299.333,796.5 299,824.5C 296.94,858.894 278.773,878.061 244.5,882C 235.506,882.5 226.506,882.666 217.5,882.5C 217.5,874.833 217.5,867.167 217.5,859.5C 231.834,860.958 245.168,858.125 257.5,851C 265.595,843.643 270.095,834.476 271,823.5C 271.333,796.167 271.667,768.833 272,741.5C 274.671,718.669 287.171,705.002 309.5,700.5C 309.291,699.914 308.957,699.414 308.5,699C 287.028,696.194 274.861,684.028 272,662.5C 271.885,639.809 271.218,617.142 270,594.5C 266.596,575.763 255.429,565.263 236.5,563C 230.175,562.5 223.842,562.334 217.5,562.5C 217.5,554.833 217.5,547.167 217.5,539.5 Z"/></g>
<g><path style="opacity:1" fill="#7dcdec" d="M 495.5,539.5 C 505.167,539.5 514.833,539.5 524.5,539.5C 524.5,547.167 524.5,554.833 524.5,562.5C 510.67,560.915 497.67,563.415 485.5,570C 476.588,576.989 471.755,586.156 471,597.5C 470.667,617.5 470.333,637.5 470,657.5C 468.347,680.668 456.181,694.501 433.5,699C 432.167,700 432.167,701 433.5,702C 455.42,704.921 467.587,717.421 470,739.5C 470.333,766.5 470.667,793.5 471,820.5C 472.259,843.758 484.426,856.591 507.5,859C 513.157,859.499 518.824,859.666 524.5,859.5C 524.5,867.167 524.5,874.833 524.5,882.5C 504.055,884.796 484.722,881.296 466.5,872C 453.642,862.789 446.142,850.289 444,834.5C 442.74,804.191 442.073,773.858 442,743.5C 439.729,724.931 429.229,714.764 410.5,713C 403.829,712.474 397.163,711.974 390.5,711.5C 390.5,703.833 390.5,696.167 390.5,688.5C 403.64,689.713 416.306,687.879 428.5,683C 436.984,677.54 441.484,669.707 442,659.5C 442.333,638.167 442.667,616.833 443,595.5C 443.972,570.575 455.806,553.408 478.5,544C 484.253,542.314 489.919,540.814 495.5,539.5 Z"/></g>
<g><path style="opacity:1" fill="#000000" d="M 512.5,648.5 C 525.984,647.817 532.151,654.15 531,667.5C 528.556,674.563 523.556,678.23 516,678.5C 503.617,676.749 498.95,669.749 502,657.5C 503.884,652.439 507.384,649.439 512.5,648.5 Z"/></g>
<g><path style="opacity:1" fill="#000000" d="M 1483.5,648.5 C 1499.49,649.487 1504.66,657.487 1499,672.5C 1491.71,679.39 1483.88,680.057 1475.5,674.5C 1471.17,668.741 1470.34,662.408 1473,655.5C 1475.66,651.762 1479.16,649.429 1483.5,648.5 Z"/></g>
<g><path style="opacity:1" fill="#000000" d="M 1057.5,651.5 C 1098.83,651.5 1140.17,651.5 1181.5,651.5C 1181.5,658.833 1181.5,666.167 1181.5,673.5C 1149.17,673.5 1116.83,673.5 1084.5,673.5C 1084.5,694.5 1084.5,715.5 1084.5,736.5C 1112.83,736.5 1141.17,736.5 1169.5,736.5C 1169.5,743.833 1169.5,751.167 1169.5,758.5C 1141.17,758.5 1112.83,758.5 1084.5,758.5C 1084.5,781.5 1084.5,804.5 1084.5,827.5C 1117.5,827.5 1150.5,827.5 1183.5,827.5C 1183.5,834.833 1183.5,842.167 1183.5,849.5C 1141.5,849.5 1099.5,849.5 1057.5,849.5C 1057.5,783.5 1057.5,717.5 1057.5,651.5 Z"/></g>
<g><path style="opacity:1" fill="#000000" d="M 1292.5,651.5 C 1343.83,651.5 1395.17,651.5 1446.5,651.5C 1446.5,658.833 1446.5,666.167 1446.5,673.5C 1425.17,673.5 1403.83,673.5 1382.5,673.5C 1382.5,732.167 1382.5,790.833 1382.5,849.5C 1373.83,849.5 1365.17,849.5 1356.5,849.5C 1356.5,790.833 1356.5,732.167 1356.5,673.5C 1335.17,673.5 1313.83,673.5 1292.5,673.5C 1292.5,666.167 1292.5,658.833 1292.5,651.5 Z"/></g>
<g><path style="opacity:1" fill="#010101" d="M 379.5,796.5 C 379.5,797.5 379.5,798.5 379.5,799.5C 378.167,799.5 376.833,799.5 375.5,799.5C 375.5,798.5 375.5,797.5 375.5,796.5C 374.5,796.5 373.5,796.5 372.5,796.5C 372.5,798.833 372.5,801.167 372.5,803.5C 371.5,803.5 370.5,803.5 369.5,803.5C 369.5,802.167 369.5,800.833 369.5,799.5C 367.167,799.5 364.833,799.5 362.5,799.5C 362.5,798.5 362.5,797.5 362.5,796.5C 361.167,796.5 359.833,796.5 358.5,796.5C 358.5,798.833 358.5,801.167 358.5,803.5C 357.5,803.5 356.5,803.5 355.5,803.5C 355.5,799.833 355.5,796.167 355.5,792.5C 356.5,792.5 357.5,792.5 358.5,792.5C 358.5,791.5 358.5,790.5 358.5,789.5C 357.5,789.5 356.5,789.5 355.5,789.5C 355.5,788.167 355.5,786.833 355.5,785.5C 356.5,785.5 357.5,785.5 358.5,785.5C 358.5,784.5 358.5,783.5 358.5,782.5C 357.5,782.5 356.5,782.5 355.5,782.5C 355.5,781.167 355.5,779.833 355.5,778.5C 356.5,778.5 357.5,778.5 358.5,778.5C 358.5,777.5 358.5,776.5 358.5,775.5C 357.5,775.5 356.5,775.5 355.5,775.5C 355.5,770.833 355.5,766.167 355.5,761.5C 356.5,761.5 357.5,761.5 358.5,761.5C 358.5,760.5 358.5,759.5 358.5,758.5C 357.5,758.5 356.5,758.5 355.5,758.5C 355.5,757.167 355.5,755.833 355.5,754.5C 356.5,754.5 357.5,754.5 358.5,754.5C 358.5,753.5 358.5,752.5 358.5,751.5C 357.5,751.5 356.5,751.5 355.5,751.5C 355.5,746.833 355.5,742.167 355.5,737.5C 356.5,737.5 357.5,737.5 358.5,737.5C 358.5,735.167 358.5,732.833 358.5,730.5C 357.5,730.5 356.5,730.5 355.5,730.5C 355.5,715.5 355.5,700.5 355.5,685.5C 347.16,685.666 338.827,685.5 330.5,685C 325.757,684.365 321.424,682.865 317.5,680.5C 317.027,679.094 316.027,678.427 314.5,678.5C 308.856,675.588 305.356,670.921 304,664.5C 303.433,661.832 302.933,659.166 302.5,656.5C 348.167,656.5 393.833,656.5 439.5,656.5C 439.384,673.784 430.717,683.284 413.5,685C 404.506,685.5 395.506,685.666 386.5,685.5C 386.5,688.833 386.5,692.167 386.5,695.5C 385.5,695.5 384.5,695.5 383.5,695.5C 383.5,696.5 383.5,697.5 383.5,698.5C 384.5,698.5 385.5,698.5 386.5,698.5C 386.5,707.833 386.5,717.167 386.5,726.5C 385.5,726.5 384.5,726.5 383.5,726.5C 383.5,727.833 383.5,729.167 383.5,730.5C 384.5,730.5 385.5,730.5 386.5,730.5C 386.5,737.5 386.5,744.5 386.5,751.5C 385.5,751.5 384.5,751.5 383.5,751.5C 383.5,752.5 383.5,753.5 383.5,754.5C 384.5,754.5 385.5,754.5 386.5,754.5C 386.5,759.167 386.5,763.833 386.5,768.5C 385.5,768.5 384.5,768.5 383.5,768.5C 383.5,769.5 383.5,770.5 383.5,771.5C 384.5,771.5 385.5,771.5 386.5,771.5C 386.5,775.167 386.5,778.833 386.5,782.5C 385.5,782.5 384.5,782.5 383.5,782.5C 383.5,784.833 383.5,787.167 383.5,789.5C 384.5,789.5 385.5,789.5 386.5,789.5C 386.5,790.5 386.5,791.5 386.5,792.5C 385.5,792.5 384.5,792.5 383.5,792.5C 383.5,793.833 383.5,795.167 383.5,796.5C 382.167,796.5 380.833,796.5 379.5,796.5 Z M 362.5,761.5 C 363.5,761.5 364.5,761.5 365.5,761.5C 365.5,762.5 365.5,763.5 365.5,764.5C 364.5,764.5 363.5,764.5 362.5,764.5C 362.5,763.5 362.5,762.5 362.5,761.5 Z M 379.5,796.5 C 378.5,796.5 377.5,796.5 376.5,796.5C 376.5,792.833 376.5,789.167 376.5,785.5C 377.5,785.5 378.5,785.5 379.5,785.5C 379.5,789.167 379.5,792.833 379.5,796.5 Z M 372.5,796.5 C 371.5,796.5 370.5,796.5 369.5,796.5C 369.5,794.167 369.5,791.833 369.5,789.5C 370.5,789.5 371.5,789.5 372.5,789.5C 372.5,791.833 372.5,794.167 372.5,796.5 Z M 369.5,803.5 C 365.833,803.5 362.167,803.5 358.5,803.5C 358.5,801.167 358.5,798.833 358.5,796.5C 359.833,796.5 361.167,796.5 362.5,796.5C 362.5,797.5 362.5,798.5 362.5,799.5C 364.833,799.5 367.167,799.5 369.5,799.5C 369.5,800.833 369.5,802.167 369.5,803.5 Z"/></g>
<g><path style="opacity:1" fill="#464646" d="M 314.5,678.5 C 316.027,678.427 317.027,679.094 317.5,680.5C 315.973,680.573 314.973,679.906 314.5,678.5 Z"/></g>
<g><path style="opacity:1" fill="#000000" d="M 627.5,699.5 C 643.41,697.892 657.743,701.726 670.5,711C 673.358,714.358 676.025,717.858 678.5,721.5C 696.274,701.383 718.274,694.883 744.5,702C 762.918,708.64 772.752,721.807 774,741.5C 774.5,777.498 774.667,813.498 774.5,849.5C 765.833,849.5 757.167,849.5 748.5,849.5C 748.968,812.793 748.468,776.126 747,739.5C 742.091,726.611 732.591,720.611 718.5,721.5C 702.647,721.533 691.814,728.867 686,743.5C 684.526,778.785 684.026,814.118 684.5,849.5C 675.833,849.5 667.167,849.5 658.5,849.5C 658.961,813.465 658.461,777.465 657,741.5C 652.458,727.295 642.625,720.629 627.5,721.5C 611.702,721.306 600.535,728.306 594,742.5C 593.5,778.165 593.333,813.832 593.5,849.5C 585.167,849.5 576.833,849.5 568.5,849.5C 568.5,800.5 568.5,751.5 568.5,702.5C 576.5,702.5 584.5,702.5 592.5,702.5C 592.506,707.215 593.006,711.882 594,716.5C 603.272,706.948 614.439,701.281 627.5,699.5 Z"/></g>
<g><path style="opacity:1" fill="#000000" d="M 862.5,699.5 C 903.591,698.418 926.091,718.418 930,759.5C 930.5,767.493 930.666,775.493 930.5,783.5C 897.5,783.5 864.5,783.5 831.5,783.5C 832.595,811.585 846.928,827.585 874.5,831.5C 884.93,831.397 894.263,828.23 902.5,822C 906.015,818.318 909.682,814.818 913.5,811.5C 918.025,815.192 922.692,818.692 927.5,822C 928.517,823.049 928.684,824.216 928,825.5C 908.564,849.422 883.731,857.589 853.5,850C 824.841,841 809.008,821.5 806,791.5C 802.307,766.278 807.641,743.278 822,722.5C 832.782,709.85 846.282,702.184 862.5,699.5 Z M 868.5,720.5 C 884.349,720.503 895.182,727.836 901,742.5C 903.139,749 904.305,755.666 904.5,762.5C 880.5,762.5 856.5,762.5 832.5,762.5C 833.283,751.315 837.117,741.315 844,732.5C 850.749,725.374 858.916,721.374 868.5,720.5 Z"/></g>
<g><path style="opacity:1" fill="#000000" d="M 1012.5,699.5 C 1018.51,699.076 1024.34,699.742 1030,701.5C 1030.5,709.493 1030.67,717.493 1030.5,725.5C 1016.97,722.467 1004.64,724.967 993.5,733C 990.612,736.222 988.112,739.722 986,743.5C 985.5,778.832 985.333,814.165 985.5,849.5C 976.833,849.5 968.167,849.5 959.5,849.5C 959.5,800.5 959.5,751.5 959.5,702.5C 967.833,702.5 976.167,702.5 984.5,702.5C 984.334,707.511 984.501,712.511 985,717.5C 991.717,707.592 1000.88,701.592 1012.5,699.5 Z"/></g>
<g><path style="opacity:1" fill="#000000" d="M 1264.5,699.5 C 1270.51,699.076 1276.34,699.742 1282,701.5C 1282.5,709.493 1282.67,717.493 1282.5,725.5C 1268.97,722.467 1256.64,724.967 1245.5,733C 1242.61,736.222 1240.11,739.722 1238,743.5C 1237.5,778.832 1237.33,814.165 1237.5,849.5C 1228.83,849.5 1220.17,849.5 1211.5,849.5C 1211.5,800.5 1211.5,751.5 1211.5,702.5C 1219.83,702.5 1228.17,702.5 1236.5,702.5C 1236.33,707.511 1236.5,712.511 1237,717.5C 1243.72,707.592 1252.88,701.592 1264.5,699.5 Z"/></g>
<g><path style="opacity:1" fill="#000000" d="M 1598.5,699.5 C 1612.98,698.111 1626.32,701.278 1638.5,709C 1642.85,712.867 1646.35,717.367 1649,722.5C 1663.08,704.465 1681.58,696.965 1704.5,700C 1727.18,703.011 1740.35,715.845 1744,738.5C 1744.5,775.498 1744.67,812.498 1744.5,849.5C 1736.17,849.5 1727.83,849.5 1719.5,849.5C 1719.92,813.479 1719.42,777.479 1718,741.5C 1715.94,731.769 1710.1,725.603 1700.5,723C 1678.95,717.69 1664.12,725.19 1656,745.5C 1654.53,780.118 1654.03,814.785 1654.5,849.5C 1645.83,849.5 1637.17,849.5 1628.5,849.5C 1628.67,814.498 1628.5,779.498 1628,744.5C 1624.09,728.773 1613.92,721.106 1597.5,721.5C 1582.23,721.207 1571.4,727.874 1565,741.5C 1564.5,777.498 1564.33,813.498 1564.5,849.5C 1555.83,849.5 1547.17,849.5 1538.5,849.5C 1538.5,800.5 1538.5,751.5 1538.5,702.5C 1546.51,702.334 1554.51,702.5 1562.5,703C 1563.31,707.749 1563.81,712.582 1564,717.5C 1573.38,707.396 1584.88,701.396 1598.5,699.5 Z"/></g>
<g><path style="opacity:1" fill="#000000" d="M 502.5,702.5 C 511.167,702.5 519.833,702.5 528.5,702.5C 528.5,751.5 528.5,800.5 528.5,849.5C 519.833,849.5 511.167,849.5 502.5,849.5C 502.5,800.5 502.5,751.5 502.5,702.5 Z"/></g>
<g><path style="opacity:1" fill="#000000" d="M 1473.5,702.5 C 1482.17,702.5 1490.83,702.5 1499.5,702.5C 1499.5,751.5 1499.5,800.5 1499.5,849.5C 1490.83,849.5 1482.17,849.5 1473.5,849.5C 1473.5,800.5 1473.5,751.5 1473.5,702.5 Z"/></g>
<g><path style="opacity:1" fill="#000000" d="M 379.5,799.5 C 381.833,799.5 384.167,799.5 386.5,799.5C 386.5,801.833 386.5,804.167 386.5,806.5C 385.167,806.5 383.833,806.5 382.5,806.5C 382.5,805.5 382.5,804.5 382.5,803.5C 381.5,803.5 380.5,803.5 379.5,803.5C 379.5,802.167 379.5,800.833 379.5,799.5 Z"/></g>
<g><path style="opacity:1" fill="#000000" d="M 358.5,803.5 C 362.167,803.5 365.833,803.5 369.5,803.5C 369.5,806.833 369.5,810.167 369.5,813.5C 370.5,813.5 371.5,813.5 372.5,813.5C 372.5,811.167 372.5,808.833 372.5,806.5C 373.833,806.5 375.167,806.5 376.5,806.5C 376.5,807.5 376.5,808.5 376.5,809.5C 377.5,809.5 378.5,809.5 379.5,809.5C 379.5,811.833 379.5,814.167 379.5,816.5C 380.833,816.5 382.167,816.5 383.5,816.5C 383.5,817.833 383.5,819.167 383.5,820.5C 384.5,820.5 385.5,820.5 386.5,820.5C 386.5,822.833 386.5,825.167 386.5,827.5C 385.5,827.5 384.5,827.5 383.5,827.5C 383.5,829.833 383.5,832.167 383.5,834.5C 382.167,834.5 380.833,834.5 379.5,834.5C 379.5,832.167 379.5,829.833 379.5,827.5C 378.167,827.5 376.833,827.5 375.5,827.5C 375.5,826.5 375.5,825.5 375.5,824.5C 374.5,824.5 373.5,824.5 372.5,824.5C 372.5,826.833 372.5,829.167 372.5,831.5C 371.5,831.5 370.5,831.5 369.5,831.5C 369.5,832.5 369.5,833.5 369.5,834.5C 367.167,834.5 364.833,834.5 362.5,834.5C 362.5,833.167 362.5,831.833 362.5,830.5C 364.833,830.5 367.167,830.5 369.5,830.5C 369.5,829.5 369.5,828.5 369.5,827.5C 368.167,827.5 366.833,827.5 365.5,827.5C 365.5,826.5 365.5,825.5 365.5,824.5C 364.5,824.5 363.5,824.5 362.5,824.5C 362.5,822.167 362.5,819.833 362.5,817.5C 360.167,817.5 357.833,817.5 355.5,817.5C 355.5,816.167 355.5,814.833 355.5,813.5C 356.5,813.5 357.5,813.5 358.5,813.5C 358.5,810.167 358.5,806.833 358.5,803.5 Z M 369.5,813.5 C 369.5,816.833 369.5,820.167 369.5,823.5C 368.167,823.5 366.833,823.5 365.5,823.5C 365.5,820.167 365.5,816.833 365.5,813.5C 366.833,813.5 368.167,813.5 369.5,813.5 Z M 376.5,817.5 C 377.5,817.5 378.5,817.5 379.5,817.5C 379.5,818.5 379.5,819.5 379.5,820.5C 380.5,820.5 381.5,820.5 382.5,820.5C 382.5,821.5 382.5,822.5 382.5,823.5C 380.5,823.5 378.5,823.5 376.5,823.5C 376.5,821.5 376.5,819.5 376.5,817.5 Z"/></g>
<g><path style="opacity:1" fill="#000000" d="M 358.5,834.5 C 357.5,834.5 356.5,834.5 355.5,834.5C 355.5,833.167 355.5,831.833 355.5,830.5C 356.5,830.5 357.5,830.5 358.5,830.5C 358.5,831.833 358.5,833.167 358.5,834.5 Z"/></g>
<g><path style="opacity:1" fill="#000000" d="M 358.5,834.5 C 359.833,834.5 361.167,834.5 362.5,834.5C 362.5,835.833 362.5,837.167 362.5,838.5C 361.167,838.5 359.833,838.5 358.5,838.5C 358.5,837.167 358.5,835.833 358.5,834.5 Z"/></g>
<g><path style="opacity:1" fill="#000000" d="M 379.5,834.5 C 379.5,836.833 379.5,839.167 379.5,841.5C 376.167,841.5 372.833,841.5 369.5,841.5C 369.5,840.167 369.5,838.833 369.5,837.5C 370.5,837.5 371.5,837.5 372.5,837.5C 372.5,836.5 372.5,835.5 372.5,834.5C 374.833,834.5 377.167,834.5 379.5,834.5 Z"/></g>
<g><path style="opacity:1" fill="#000000" d="M 362.5,841.5 C 363.5,841.5 364.5,841.5 365.5,841.5C 365.5,842.5 365.5,843.5 365.5,844.5C 366.833,844.5 368.167,844.5 369.5,844.5C 369.5,845.833 369.5,847.167 369.5,848.5C 368.167,848.5 366.833,848.5 365.5,848.5C 365.5,847.5 365.5,846.5 365.5,845.5C 364.5,845.5 363.5,845.5 362.5,845.5C 362.5,844.167 362.5,842.833 362.5,841.5 Z"/></g>
<g><path style="opacity:1" fill="#000000" d="M 379.5,841.5 C 380.833,841.5 382.167,841.5 383.5,841.5C 383.5,842.833 383.5,844.167 383.5,845.5C 382.167,845.5 380.833,845.5 379.5,845.5C 379.5,844.167 379.5,842.833 379.5,841.5 Z"/></g>
<g><path style="opacity:1" fill="#000000" d="M 372.5,844.5 C 373.833,844.5 375.167,844.5 376.5,844.5C 376.5,845.833 376.5,847.167 376.5,848.5C 375.167,848.5 373.833,848.5 372.5,848.5C 372.5,847.167 372.5,845.833 372.5,844.5 Z"/></g>
<g><path style="opacity:1" fill="#000000" d="M 355.5,848.5 C 357.833,848.5 360.167,848.5 362.5,848.5C 362.5,850.833 362.5,853.167 362.5,855.5C 361.167,855.5 359.833,855.5 358.5,855.5C 358.5,854.167 358.5,852.833 358.5,851.5C 357.5,851.5 356.5,851.5 355.5,851.5C 355.5,850.5 355.5,849.5 355.5,848.5 Z"/></g>
<g><path style="opacity:1" fill="#000000" d="M 379.5,858.5 C 378.5,858.5 377.5,858.5 376.5,858.5C 376.5,859.833 376.5,861.167 376.5,862.5C 375.167,862.5 373.833,862.5 372.5,862.5C 372.5,861.167 372.5,859.833 372.5,858.5C 373.5,858.5 374.5,858.5 375.5,858.5C 375.5,857.5 375.5,856.5 375.5,855.5C 376.833,855.5 378.167,855.5 379.5,855.5C 379.5,856.5 379.5,857.5 379.5,858.5 Z"/></g>
<g><path style="opacity:1" fill="#000000" d="M 362.5,858.5 C 363.5,858.5 364.5,858.5 365.5,858.5C 365.5,860.833 365.5,863.167 365.5,865.5C 364.5,865.5 363.5,865.5 362.5,865.5C 362.5,863.167 362.5,860.833 362.5,858.5 Z"/></g>
<g><path style="opacity:1" fill="#000000" d="M 379.5,858.5 C 380.833,858.5 382.167,858.5 383.5,858.5C 383.5,860.833 383.5,863.167 383.5,865.5C 382.167,865.5 380.833,865.5 379.5,865.5C 379.5,863.167 379.5,860.833 379.5,858.5 Z"/></g>
<g><path style="opacity:1" fill="#000000" d="M 358.5,868.5 C 359.833,868.5 361.167,868.5 362.5,868.5C 362.5,869.833 362.5,871.167 362.5,872.5C 361.167,872.5 359.833,872.5 358.5,872.5C 358.5,871.167 358.5,869.833 358.5,868.5 Z"/></g>
<g><path style="opacity:1" fill="#000000" d="M 369.5,868.5 C 370.5,868.5 371.5,868.5 372.5,868.5C 372.5,869.833 372.5,871.167 372.5,872.5C 371.5,872.5 370.5,872.5 369.5,872.5C 369.5,871.167 369.5,869.833 369.5,868.5 Z"/></g>
</svg>