<svg xmlns="http://www.w3.org/2000/svg" xmlns:xlink="http://www.w3.org/1999/xlink" version="1.1" style="shape-rendering:geometricPrecision; text-rendering:geometricPrecision; image-rendering:optimizeQuality; fill-rule:evenodd; clip-rule:evenodd" viewBox="204.5 99.33 1228 1373.33">
<g><path style="opacity:1" fill="#83ceed" d="M 204.5,99.5 C 238.208,98.9357 271.875,99.769 305.5,102C 446.79,115.29 521.623,192.79 530,334.5C 530.075,410.176 530.742,485.843 532,561.5C 532.941,592.986 542.608,621.319 561,646.5C 582.261,669.721 608.428,684.554 639.5,691C 672.851,697.501 706.518,700.001 740.5,698.5C 740.5,728.833 740.5,759.167 740.5,789.5C 706.642,788.164 672.976,789.997 639.5,795C 569.606,806.892 533.773,848.392 532,919.5C 530.724,1025.49 530.057,1131.49 530,1237.5C 522.357,1379.81 447.523,1457.31 305.5,1470C 271.873,1472.2 238.206,1473.04 204.5,1472.5C 204.5,1442.17 204.5,1411.83 204.5,1381.5C 229.211,1381.88 253.878,1381.04 278.5,1379C 367.52,1367.64 415.02,1317.14 421,1227.5C 421.333,1131.5 421.667,1035.5 422,939.5C 421.517,897.898 431.183,858.898 451,822.5C 473.815,787.653 505.648,765.486 546.5,756C 555.155,754.058 563.822,752.225 572.5,750.5C 573.634,746.169 573.634,741.836 572.5,737.5C 490.972,728.468 442.138,683.801 426,603.5C 423.543,590.266 421.877,576.933 421,563.5C 420.667,494.167 420.333,424.833 420,355.5C 415.034,250.2 359.867,195.367 254.5,191C 237.837,190.5 221.17,190.333 204.5,190.5C 204.5,160.167 204.5,129.833 204.5,99.5 Z"/></g>
<g><path style="opacity:1" fill="#83ceed" d="M 1360.5,99.5 C 1384.5,99.5 1408.5,99.5 1432.5,99.5C 1432.5,129.833 1432.5,160.167 1432.5,190.5C 1399.57,189.016 1366.9,191.183 1334.5,197C 1272.67,210.833 1234.83,248.667 1221,310.5C 1219.34,318.782 1218.01,327.115 1217,335.5C 1215.71,409.819 1215.04,484.152 1215,558.5C 1214.38,599.33 1203.38,636.996 1182,671.5C 1159.4,702.726 1129.24,722.892 1091.5,732C 1082.58,734.284 1073.58,736.117 1064.5,737.5C 1064.17,741.884 1064.51,746.217 1065.5,750.5C 1148.36,759.864 1197.2,805.531 1212,887.5C 1213.84,898.437 1215.18,909.437 1216,920.5C 1217.27,1022.83 1217.94,1125.16 1218,1227.5C 1223.89,1316.72 1271.06,1367.22 1359.5,1379C 1383.79,1381.03 1408.12,1381.87 1432.5,1381.5C 1432.5,1411.83 1432.5,1442.17 1432.5,1472.5C 1399.13,1473.03 1365.79,1472.2 1332.5,1470C 1187.82,1456.32 1112.65,1376.82 1107,1231.5C 1106.67,1134.17 1106.33,1036.83 1106,939.5C 1104.96,851.126 1060.46,801.959 972.5,792C 947.556,789.76 922.556,788.927 897.5,789.5C 897.5,759.167 897.5,728.833 897.5,698.5C 928.625,699.424 959.625,697.924 990.5,694C 1019.59,690.445 1045.59,679.778 1068.5,662C 1087.2,643.763 1098.37,621.596 1102,595.5C 1103.28,587.535 1104.28,579.535 1105,571.5C 1106.28,494.179 1106.95,416.846 1107,339.5C 1111.5,199.677 1183,120.844 1321.5,103C 1334.64,101.656 1347.64,100.489 1360.5,99.5 Z"/></g>
<g><path style="opacity:1" fill="#000000" d="M 596.5,659.5 C 596.027,658.094 595.027,657.427 593.5,657.5C 593.027,656.094 592.027,655.427 590.5,655.5C 590.027,654.094 589.027,653.427 587.5,653.5C 586.833,653.5 586.5,653.167 586.5,652.5C 586.027,651.094 585.027,650.427 583.5,650.5C 568.041,637.505 557.541,621.171 552,601.5C 549.382,590.909 547.215,580.243 545.5,569.5C 727.832,568.333 910.166,568.167 1092.5,569C 1091.18,591.239 1085.68,612.406 1076,632.5C 1061.85,654.351 1042.01,668.518 1016.5,675C 1005.34,678.193 994.011,680.526 982.5,682C 948.859,683.435 915.193,683.935 881.5,683.5C 881.5,697.5 881.5,711.5 881.5,725.5C 876.833,725.5 872.167,725.5 867.5,725.5C 867.5,729.5 867.5,733.5 867.5,737.5C 872.167,737.5 876.833,737.5 881.5,737.5C 881.5,775.167 881.5,812.833 881.5,850.5C 876.833,850.5 872.167,850.5 867.5,850.5C 867.5,854.5 867.5,858.5 867.5,862.5C 872.167,862.5 876.833,862.5 881.5,862.5C 881.5,890.833 881.5,919.167 881.5,947.5C 876.833,947.5 872.167,947.5 867.5,947.5C 867.5,951.5 867.5,955.5 867.5,959.5C 872.167,959.5 876.833,959.5 881.5,959.5C 881.5,978.5 881.5,997.5 881.5,1016.5C 876.833,1016.5 872.167,1016.5 867.5,1016.5C 867.5,1020.83 867.5,1025.17 867.5,1029.5C 872.167,1029.5 876.833,1029.5 881.5,1029.5C 881.5,1043.83 881.5,1058.17 881.5,1072.5C 876.833,1072.5 872.167,1072.5 867.5,1072.5C 867.5,1081.17 867.5,1089.83 867.5,1098.5C 872.167,1098.5 876.833,1098.5 881.5,1098.5C 881.5,1103.83 881.5,1109.17 881.5,1114.5C 876.833,1114.5 872.167,1114.5 867.5,1114.5C 867.5,1118.83 867.5,1123.17 867.5,1127.5C 863.167,1127.5 858.833,1127.5 854.5,1127.5C 854.5,1131.83 854.5,1136.17 854.5,1140.5C 863.5,1140.5 872.5,1140.5 881.5,1140.5C 881.5,1150.17 881.5,1159.83 881.5,1169.5C 876.5,1169.5 871.5,1169.5 866.5,1169.5C 866.5,1164.83 866.5,1160.17 866.5,1155.5C 861.833,1155.5 857.167,1155.5 852.5,1155.5C 852.5,1150.83 852.5,1146.17 852.5,1141.5C 847.833,1141.5 843.167,1141.5 838.5,1141.5C 838.5,1136.83 838.5,1132.17 838.5,1127.5C 834.5,1127.5 830.5,1127.5 826.5,1127.5C 826.5,1136.83 826.5,1146.17 826.5,1155.5C 821.833,1155.5 817.167,1155.5 812.5,1155.5C 812.5,1169.17 812.5,1182.83 812.5,1196.5C 816.5,1196.5 820.5,1196.5 824.5,1196.5C 824.5,1187.17 824.5,1177.83 824.5,1168.5C 829.833,1168.5 835.167,1168.5 840.5,1168.5C 840.5,1173.17 840.5,1177.83 840.5,1182.5C 845.167,1182.5 849.833,1182.5 854.5,1182.5C 854.5,1191.5 854.5,1200.5 854.5,1209.5C 858.833,1209.5 863.167,1209.5 867.5,1209.5C 867.5,1214.17 867.5,1218.83 867.5,1223.5C 872.167,1223.5 876.833,1223.5 881.5,1223.5C 881.5,1233.17 881.5,1242.83 881.5,1252.5C 876.833,1252.5 872.167,1252.5 867.5,1252.5C 867.5,1261.83 867.5,1271.17 867.5,1280.5C 863.167,1280.5 858.833,1280.5 854.5,1280.5C 854.5,1289.5 854.5,1298.5 854.5,1307.5C 858.833,1307.5 863.167,1307.5 867.5,1307.5C 867.5,1312.5 867.5,1317.5 867.5,1322.5C 862.5,1322.5 857.5,1322.5 852.5,1322.5C 852.5,1317.83 852.5,1313.17 852.5,1308.5C 838.833,1308.5 825.167,1308.5 811.5,1308.5C 811.5,1303.5 811.5,1298.5 811.5,1293.5C 815.833,1293.5 820.167,1293.5 824.5,1293.5C 824.5,1288.83 824.5,1284.17 824.5,1279.5C 833.833,1279.5 843.167,1279.5 852.5,1279.5C 852.5,1270.5 852.5,1261.5 852.5,1252.5C 847.833,1252.5 843.167,1252.5 838.5,1252.5C 838.5,1248.17 838.5,1243.83 838.5,1239.5C 834.5,1239.5 830.5,1239.5 826.5,1239.5C 826.5,1248.5 826.5,1257.5 826.5,1266.5C 821.833,1266.5 817.167,1266.5 812.5,1266.5C 812.5,1271.17 812.5,1275.83 812.5,1280.5C 803.167,1280.5 793.833,1280.5 784.5,1280.5C 784.5,1285.17 784.5,1289.83 784.5,1294.5C 779.5,1294.5 774.5,1294.5 769.5,1294.5C 769.5,1289.83 769.5,1285.17 769.5,1280.5C 764.833,1280.5 760.167,1280.5 755.5,1280.5C 755.5,1275.5 755.5,1270.5 755.5,1265.5C 760.5,1265.5 765.5,1265.5 770.5,1265.5C 770.5,1270.17 770.5,1274.83 770.5,1279.5C 774.833,1279.5 779.167,1279.5 783.5,1279.5C 783.5,1274.83 783.5,1270.17 783.5,1265.5C 792.833,1265.5 802.167,1265.5 811.5,1265.5C 811.5,1261.17 811.5,1256.83 811.5,1252.5C 806.833,1252.5 802.167,1252.5 797.5,1252.5C 797.5,1248.17 797.5,1243.83 797.5,1239.5C 792.833,1239.5 788.167,1239.5 783.5,1239.5C 783.5,1230.17 783.5,1220.83 783.5,1211.5C 774.167,1211.5 764.833,1211.5 755.5,1211.5C 755.5,1206.5 755.5,1201.5 755.5,1196.5C 760.167,1196.5 764.833,1196.5 769.5,1196.5C 769.5,1182.83 769.5,1169.17 769.5,1155.5C 764.833,1155.5 760.167,1155.5 755.5,1155.5C 755.5,1141.17 755.5,1126.83 755.5,1112.5C 760.167,1112.5 764.833,1112.5 769.5,1112.5C 769.5,1108.5 769.5,1104.5 769.5,1100.5C 764.833,1100.5 760.167,1100.5 755.5,1100.5C 755.5,1095.17 755.5,1089.83 755.5,1084.5C 760.167,1084.5 764.833,1084.5 769.5,1084.5C 769.5,1080.5 769.5,1076.5 769.5,1072.5C 764.833,1072.5 760.167,1072.5 755.5,1072.5C 755.5,1067.5 755.5,1062.5 755.5,1057.5C 760.167,1057.5 764.833,1057.5 769.5,1057.5C 769.5,1053.17 769.5,1048.83 769.5,1044.5C 764.833,1044.5 760.167,1044.5 755.5,1044.5C 755.5,1025.5 755.5,1006.5 755.5,987.5C 760.167,987.5 764.833,987.5 769.5,987.5C 769.5,983.5 769.5,979.5 769.5,975.5C 764.833,975.5 760.167,975.5 755.5,975.5C 755.5,970.167 755.5,964.833 755.5,959.5C 760.167,959.5 764.833,959.5 769.5,959.5C 769.5,955.5 769.5,951.5 769.5,947.5C 764.833,947.5 760.167,947.5 755.5,947.5C 755.5,928.5 755.5,909.5 755.5,890.5C 760.167,890.5 764.833,890.5 769.5,890.5C 769.5,881.833 769.5,873.167 769.5,864.5C 764.833,864.5 760.167,864.5 755.5,864.5C 755.5,804.167 755.5,743.833 755.5,683.5C 724.471,683.937 693.471,683.437 662.5,682C 638.767,679.146 616.767,671.646 596.5,659.5 Z M 784.5,989.5 C 788.833,989.5 793.167,989.5 797.5,989.5C 797.5,993.5 797.5,997.5 797.5,1001.5C 793.167,1001.5 788.833,1001.5 784.5,1001.5C 784.5,997.5 784.5,993.5 784.5,989.5 Z M 840.5,1086.5 C 844.5,1086.5 848.5,1086.5 852.5,1086.5C 852.5,1099.83 852.5,1113.17 852.5,1126.5C 848.5,1126.5 844.5,1126.5 840.5,1126.5C 840.5,1113.17 840.5,1099.83 840.5,1086.5 Z M 812.5,1100.5 C 816.5,1100.5 820.5,1100.5 824.5,1100.5C 824.5,1109.17 824.5,1117.83 824.5,1126.5C 820.5,1126.5 816.5,1126.5 812.5,1126.5C 812.5,1117.83 812.5,1109.17 812.5,1100.5 Z M 770.5,1127.5 C 774.833,1127.5 779.167,1127.5 783.5,1127.5C 783.5,1132.17 783.5,1136.83 783.5,1141.5C 792.833,1141.5 802.167,1141.5 811.5,1141.5C 811.5,1145.83 811.5,1150.17 811.5,1154.5C 797.833,1154.5 784.167,1154.5 770.5,1154.5C 770.5,1145.5 770.5,1136.5 770.5,1127.5 Z M 798.5,1197.5 C 802.833,1197.5 807.167,1197.5 811.5,1197.5C 811.5,1210.83 811.5,1224.17 811.5,1237.5C 807.167,1237.5 802.833,1237.5 798.5,1237.5C 798.5,1224.17 798.5,1210.83 798.5,1197.5 Z M 840.5,1211.5 C 844.5,1211.5 848.5,1211.5 852.5,1211.5C 852.5,1216.17 852.5,1220.83 852.5,1225.5C 857.167,1225.5 861.833,1225.5 866.5,1225.5C 866.5,1229.5 866.5,1233.5 866.5,1237.5C 857.833,1237.5 849.167,1237.5 840.5,1237.5C 840.5,1228.83 840.5,1220.17 840.5,1211.5 Z"/></g>
<g><path style="opacity:1" fill="#5f5f5f" d="M 583.5,650.5 C 585.027,650.427 586.027,651.094 586.5,652.5C 584.973,652.573 583.973,651.906 583.5,650.5 Z"/></g>
<g><path style="opacity:1" fill="#4d4d4d" d="M 587.5,653.5 C 589.027,653.427 590.027,654.094 590.5,655.5C 588.973,655.573 587.973,654.906 587.5,653.5 Z"/></g>
<g><path style="opacity:1" fill="#494949" d="M 590.5,655.5 C 592.027,655.427 593.027,656.094 593.5,657.5C 591.973,657.573 590.973,656.906 590.5,655.5 Z"/></g>
<g><path style="opacity:1" fill="#494949" d="M 593.5,657.5 C 595.027,657.427 596.027,658.094 596.5,659.5C 594.973,659.573 593.973,658.906 593.5,657.5 Z"/></g>
<g><path style="opacity:1" fill="#000000" d="M 783.5,1307.5 C 788.5,1307.5 793.5,1307.5 798.5,1307.5C 798.5,1312.17 798.5,1316.83 798.5,1321.5C 803.167,1321.5 807.833,1321.5 812.5,1321.5C 812.5,1326.5 812.5,1331.5 812.5,1336.5C 807.5,1336.5 802.5,1336.5 797.5,1336.5C 797.5,1331.83 797.5,1327.17 797.5,1322.5C 792.833,1322.5 788.167,1322.5 783.5,1322.5C 783.5,1317.5 783.5,1312.5 783.5,1307.5 Z"/></g>
<g><path style="opacity:1" fill="#000000" d="M 824.5,1321.5 C 829.833,1321.5 835.167,1321.5 840.5,1321.5C 840.5,1326.5 840.5,1331.5 840.5,1336.5C 835.167,1336.5 829.833,1336.5 824.5,1336.5C 824.5,1331.5 824.5,1326.5 824.5,1321.5 Z"/></g>
<g><path style="opacity:1" fill="#000000" d="M 755.5,1334.5 C 765.167,1334.5 774.833,1334.5 784.5,1334.5C 784.5,1344.5 784.5,1354.5 784.5,1364.5C 779.5,1364.5 774.5,1364.5 769.5,1364.5C 769.5,1359.83 769.5,1355.17 769.5,1350.5C 764.833,1350.5 760.167,1350.5 755.5,1350.5C 755.5,1345.17 755.5,1339.83 755.5,1334.5 Z"/></g>
<g><path style="opacity:1" fill="#000000" d="M 838.5,1362.5 C 843.833,1362.5 849.167,1362.5 854.5,1362.5C 854.5,1367.17 854.5,1371.83 854.5,1376.5C 858.833,1376.5 863.167,1376.5 867.5,1376.5C 867.5,1386.17 867.5,1395.83 867.5,1405.5C 862.5,1405.5 857.5,1405.5 852.5,1405.5C 852.5,1396.17 852.5,1386.83 852.5,1377.5C 848.5,1377.5 844.5,1377.5 840.5,1377.5C 840.5,1382.17 840.5,1386.83 840.5,1391.5C 835.167,1391.5 829.833,1391.5 824.5,1391.5C 824.5,1386.5 824.5,1381.5 824.5,1376.5C 829.167,1376.5 833.833,1376.5 838.5,1376.5C 838.5,1371.83 838.5,1367.17 838.5,1362.5 Z"/></g>
<g><path style="opacity:1" fill="#000000" d="M 783.5,1376.5 C 788.5,1376.5 793.5,1376.5 798.5,1376.5C 798.5,1386.17 798.5,1395.83 798.5,1405.5C 793.5,1405.5 788.5,1405.5 783.5,1405.5C 783.5,1395.83 783.5,1386.17 783.5,1376.5 Z"/></g>
<g><path style="opacity:1" fill="#000000" d="M 769.5,1418.5 C 774.5,1418.5 779.5,1418.5 784.5,1418.5C 784.5,1423.5 784.5,1428.5 784.5,1433.5C 779.5,1433.5 774.5,1433.5 769.5,1433.5C 769.5,1428.5 769.5,1423.5 769.5,1418.5 Z"/></g>
<g><path style="opacity:1" fill="#000000" d="M 811.5,1418.5 C 816.5,1418.5 821.5,1418.5 826.5,1418.5C 826.5,1423.5 826.5,1428.5 826.5,1433.5C 821.5,1433.5 816.5,1433.5 811.5,1433.5C 811.5,1428.5 811.5,1423.5 811.5,1418.5 Z"/></g>
</svg>