<svg xmlns="http://www.w3.org/2000/svg" xmlns:xlink="http://www.w3.org/1999/xlink" version="1.1" style="shape-rendering:geometricPrecision; text-rendering:geometricPrecision; image-rendering:optimizeQuality; fill-rule:evenodd; clip-rule:evenodd" viewBox="90.5 126.31 1707.06 1168.26">
<g><path style="opacity:1" fill="#7dcdec" d="M 582.5,126.5 C 606.894,125.902 631.228,126.736 655.5,129C 725.013,138.181 765.18,177.348 776,246.5C 776.733,252.826 777.399,259.16 778,265.5C 778.333,310.167 778.667,354.833 779,399.5C 779.426,419.22 785.093,437.22 796,453.5C 814.06,472.312 836.227,482.478 862.5,484C 876.473,485.232 890.473,485.732 904.5,485.5C 904.5,503.833 904.5,522.167 904.5,540.5C 876.962,538.564 849.962,541.397 823.5,549C 800.267,557.57 786.434,574.07 782,598.5C 780.347,606.418 779.347,614.418 779,622.5C 778.964,688.52 778.298,754.52 777,820.5C 774.698,853.436 763.031,882.436 742,907.5C 715.685,931.73 684.518,945.23 648.5,948C 626.54,949.832 604.54,950.665 582.5,950.5C 582.5,931.833 582.5,913.167 582.5,894.5C 596.171,894.667 609.837,894.5 623.5,894C 677.215,889.285 706.715,860.118 712,806.5C 712.333,747.833 712.667,689.167 713,630.5C 712.232,600.541 720.566,573.541 738,549.5C 755.561,531.136 777.061,520.303 802.5,517C 803.833,514.333 803.833,511.667 802.5,509C 755.058,503.89 726.225,478.056 716,431.5C 714.72,424.876 713.72,418.21 713,411.5C 711.776,364.179 711.109,316.845 711,269.5C 705.703,215.87 676.203,186.703 622.5,182C 609.171,181.5 595.837,181.333 582.5,181.5C 582.5,163.167 582.5,144.833 582.5,126.5 Z"/></g>
<g><path style="opacity:1" fill="#7dcdec" d="M 1264.5,126.5 C 1282.83,126.5 1301.17,126.5 1319.5,126.5C 1319.5,144.833 1319.5,163.167 1319.5,181.5C 1306.16,181.333 1292.83,181.5 1279.5,182C 1228.98,185.861 1199.48,212.694 1191,262.5C 1189.72,309.812 1189.05,357.146 1189,404.5C 1188.13,426.186 1182.46,446.519 1172,465.5C 1154.55,490.822 1130.39,505.322 1099.5,509C 1097.92,511.957 1098.26,514.624 1100.5,517C 1143.32,521.172 1171.16,543.672 1184,584.5C 1187.3,596.96 1189.3,609.627 1190,622.5C 1190.33,682.833 1190.67,743.167 1191,803.5C 1195.57,858.069 1225.07,888.236 1279.5,894C 1292.83,894.5 1306.16,894.667 1319.5,894.5C 1319.5,913.167 1319.5,931.833 1319.5,950.5C 1297.8,950.582 1276.13,949.748 1254.5,948C 1220.95,945.16 1191.28,933.16 1165.5,912C 1142.55,888.204 1129.38,859.704 1126,826.5C 1125.07,818.523 1124.4,810.523 1124,802.5C 1123.67,742.5 1123.33,682.5 1123,622.5C 1122.28,588.171 1106.44,564.004 1075.5,550C 1050.53,541.569 1024.87,538.402 998.5,540.5C 998.5,522.167 998.5,503.833 998.5,485.5C 1021.73,486.393 1044.73,484.559 1067.5,480C 1100.45,471.646 1118.61,450.479 1122,416.5C 1123.28,368.521 1123.95,320.521 1124,272.5C 1127.25,181.754 1174.08,133.087 1264.5,126.5 Z"/></g>
<g><path style="opacity:1" fill="#000000" d="M 815.5,460.5 C 815.027,459.094 814.027,458.427 812.5,458.5C 811.5,458.167 810.833,457.5 810.5,456.5C 810.027,455.094 809.027,454.427 807.5,454.5C 798.596,446.038 792.762,435.705 790,423.5C 788.84,418.208 788.007,412.875 787.5,407.5C 896.833,407.5 1006.17,407.5 1115.5,407.5C 1115.67,428.85 1108.01,446.683 1092.5,461C 1078.77,469.578 1063.77,474.578 1047.5,476C 1028.17,476.5 1008.84,476.667 989.5,476.5C 989.5,484.833 989.5,493.167 989.5,501.5C 986.5,501.5 983.5,501.5 980.5,501.5C 980.5,504.167 980.5,506.833 980.5,509.5C 983.5,509.5 986.5,509.5 989.5,509.5C 989.5,531.833 989.5,554.167 989.5,576.5C 986.5,576.5 983.5,576.5 980.5,576.5C 980.5,579.167 980.5,581.833 980.5,584.5C 983.5,584.5 986.5,584.5 989.5,584.5C 989.5,601.167 989.5,617.833 989.5,634.5C 986.5,634.5 983.5,634.5 980.5,634.5C 980.5,637.167 980.5,639.833 980.5,642.5C 983.5,642.5 986.5,642.5 989.5,642.5C 989.5,653.833 989.5,665.167 989.5,676.5C 986.5,676.5 983.5,676.5 980.5,676.5C 980.5,679.167 980.5,681.833 980.5,684.5C 983.5,684.5 986.5,684.5 989.5,684.5C 989.5,692.833 989.5,701.167 989.5,709.5C 986.5,709.5 983.5,709.5 980.5,709.5C 980.5,714.833 980.5,720.167 980.5,725.5C 983.5,725.5 986.5,725.5 989.5,725.5C 989.5,728.5 989.5,731.5 989.5,734.5C 986.5,734.5 983.5,734.5 980.5,734.5C 980.5,737.5 980.5,740.5 980.5,743.5C 977.833,743.5 975.167,743.5 972.5,743.5C 972.5,745.833 972.5,748.167 972.5,750.5C 978.167,750.5 983.833,750.5 989.5,750.5C 989.5,756.5 989.5,762.5 989.5,768.5C 986.167,768.5 982.833,768.5 979.5,768.5C 979.5,765.5 979.5,762.5 979.5,759.5C 976.833,759.5 974.167,759.5 971.5,759.5C 971.5,756.833 971.5,754.167 971.5,751.5C 968.833,751.5 966.167,751.5 963.5,751.5C 963.5,748.833 963.5,746.167 963.5,743.5C 960.833,743.5 958.167,743.5 955.5,743.5C 955.5,748.833 955.5,754.167 955.5,759.5C 952.833,759.5 950.167,759.5 947.5,759.5C 947.5,767.833 947.5,776.167 947.5,784.5C 949.833,784.5 952.167,784.5 954.5,784.5C 954.5,778.833 954.5,773.167 954.5,767.5C 957.833,767.5 961.167,767.5 964.5,767.5C 964.5,770.167 964.5,772.833 964.5,775.5C 967.167,775.5 969.833,775.5 972.5,775.5C 972.5,781.167 972.5,786.833 972.5,792.5C 975.167,792.5 977.833,792.5 980.5,792.5C 980.5,795.167 980.5,797.833 980.5,800.5C 983.5,800.5 986.5,800.5 989.5,800.5C 989.5,806.5 989.5,812.5 989.5,818.5C 986.5,818.5 983.5,818.5 980.5,818.5C 980.5,823.833 980.5,829.167 980.5,834.5C 977.833,834.5 975.167,834.5 972.5,834.5C 972.5,839.833 972.5,845.167 972.5,850.5C 975.167,850.5 977.833,850.5 980.5,850.5C 980.5,853.5 980.5,856.5 980.5,859.5C 977.5,859.5 974.5,859.5 971.5,859.5C 971.5,856.833 971.5,854.167 971.5,851.5C 963.167,851.5 954.833,851.5 946.5,851.5C 946.5,848.5 946.5,845.5 946.5,842.5C 949.167,842.5 951.833,842.5 954.5,842.5C 954.5,839.833 954.5,837.167 954.5,834.5C 960.167,834.5 965.833,834.5 971.5,834.5C 971.5,829.167 971.5,823.833 971.5,818.5C 968.833,818.5 966.167,818.5 963.5,818.5C 963.5,815.5 963.5,812.5 963.5,809.5C 960.833,809.5 958.167,809.5 955.5,809.5C 955.5,815.167 955.5,820.833 955.5,826.5C 952.833,826.5 950.167,826.5 947.5,826.5C 947.5,829.167 947.5,831.833 947.5,834.5C 941.833,834.5 936.167,834.5 930.5,834.5C 930.5,837.5 930.5,840.5 930.5,843.5C 927.5,843.5 924.5,843.5 921.5,843.5C 921.5,840.5 921.5,837.5 921.5,834.5C 918.833,834.5 916.167,834.5 913.5,834.5C 913.5,831.5 913.5,828.5 913.5,825.5C 916.5,825.5 919.5,825.5 922.5,825.5C 922.5,828.5 922.5,831.5 922.5,834.5C 924.833,834.5 927.167,834.5 929.5,834.5C 929.5,831.5 929.5,828.5 929.5,825.5C 935.167,825.5 940.833,825.5 946.5,825.5C 946.5,823.167 946.5,820.833 946.5,818.5C 943.833,818.5 941.167,818.5 938.5,818.5C 938.5,815.5 938.5,812.5 938.5,809.5C 935.5,809.5 932.5,809.5 929.5,809.5C 929.5,804.167 929.5,798.833 929.5,793.5C 924.167,793.5 918.833,793.5 913.5,793.5C 913.5,790.5 913.5,787.5 913.5,784.5C 916.167,784.5 918.833,784.5 921.5,784.5C 921.5,776.167 921.5,767.833 921.5,759.5C 918.833,759.5 916.167,759.5 913.5,759.5C 913.5,751.167 913.5,742.833 913.5,734.5C 916.167,734.5 918.833,734.5 921.5,734.5C 921.5,731.833 921.5,729.167 921.5,726.5C 918.833,726.5 916.167,726.5 913.5,726.5C 913.5,723.5 913.5,720.5 913.5,717.5C 916.167,717.5 918.833,717.5 921.5,717.5C 921.5,714.833 921.5,712.167 921.5,709.5C 918.833,709.5 916.167,709.5 913.5,709.5C 913.5,706.5 913.5,703.5 913.5,700.5C 916.167,700.5 918.833,700.5 921.5,700.5C 921.5,698.167 921.5,695.833 921.5,693.5C 918.833,693.5 916.167,693.5 913.5,693.5C 913.5,682.167 913.5,670.833 913.5,659.5C 916.167,659.5 918.833,659.5 921.5,659.5C 921.5,656.833 921.5,654.167 921.5,651.5C 918.833,651.5 916.167,651.5 913.5,651.5C 913.5,648.5 913.5,645.5 913.5,642.5C 916.167,642.5 918.833,642.5 921.5,642.5C 921.5,639.833 921.5,637.167 921.5,634.5C 918.833,634.5 916.167,634.5 913.5,634.5C 913.5,623.167 913.5,611.833 913.5,600.5C 916.167,600.5 918.833,600.5 921.5,600.5C 921.5,595.167 921.5,589.833 921.5,584.5C 918.833,584.5 916.167,584.5 913.5,584.5C 913.5,548.5 913.5,512.5 913.5,476.5C 895.164,476.667 876.83,476.5 858.5,476C 844.807,474.213 831.807,470.213 819.5,464C 817.907,463.051 816.574,461.885 815.5,460.5 Z M 930.5,659.5 C 933.167,659.5 935.833,659.5 938.5,659.5C 938.5,662.167 938.5,664.833 938.5,667.5C 935.833,667.5 933.167,667.5 930.5,667.5C 930.5,664.833 930.5,662.167 930.5,659.5 Z M 964.5,718.5 C 966.833,718.5 969.167,718.5 971.5,718.5C 971.5,726.5 971.5,734.5 971.5,742.5C 969.167,742.5 966.833,742.5 964.5,742.5C 964.5,734.5 964.5,726.5 964.5,718.5 Z M 947.5,726.5 C 949.833,726.5 952.167,726.5 954.5,726.5C 954.5,731.833 954.5,737.167 954.5,742.5C 952.167,742.5 949.833,742.5 947.5,742.5C 947.5,737.167 947.5,731.833 947.5,726.5 Z M 922.5,743.5 C 924.833,743.5 927.167,743.5 929.5,743.5C 929.5,746.167 929.5,748.833 929.5,751.5C 935.167,751.5 940.833,751.5 946.5,751.5C 946.5,754.167 946.5,756.833 946.5,759.5C 938.5,759.5 930.5,759.5 922.5,759.5C 922.5,754.167 922.5,748.833 922.5,743.5 Z M 939.5,784.5 C 941.833,784.5 944.167,784.5 946.5,784.5C 946.5,792.833 946.5,801.167 946.5,809.5C 944.167,809.5 941.833,809.5 939.5,809.5C 939.5,801.167 939.5,792.833 939.5,784.5 Z M 964.5,793.5 C 966.833,793.5 969.167,793.5 971.5,793.5C 971.5,796.167 971.5,798.833 971.5,801.5C 974.167,801.5 976.833,801.5 979.5,801.5C 979.5,804.167 979.5,806.833 979.5,809.5C 974.5,809.5 969.5,809.5 964.5,809.5C 964.5,804.167 964.5,798.833 964.5,793.5 Z"/></g>
<g><path style="opacity:1" fill="#444444" d="M 807.5,454.5 C 809.027,454.427 810.027,455.094 810.5,456.5C 808.973,456.573 807.973,455.906 807.5,454.5 Z"/></g>
<g><path style="opacity:1" fill="#464646" d="M 812.5,458.5 C 814.027,458.427 815.027,459.094 815.5,460.5C 813.973,460.573 812.973,459.906 812.5,458.5 Z"/></g>
<g><path style="opacity:1" fill="#000000" d="M 929.5,850.5 C 932.833,850.5 936.167,850.5 939.5,850.5C 939.5,853.5 939.5,856.5 939.5,859.5C 942.167,859.5 944.833,859.5 947.5,859.5C 947.5,862.5 947.5,865.5 947.5,868.5C 944.5,868.5 941.5,868.5 938.5,868.5C 938.5,865.5 938.5,862.5 938.5,859.5C 935.5,859.5 932.5,859.5 929.5,859.5C 929.5,856.5 929.5,853.5 929.5,850.5 Z"/></g>
<g><path style="opacity:1" fill="#000000" d="M 954.5,859.5 C 957.833,859.5 961.167,859.5 964.5,859.5C 964.5,862.5 964.5,865.5 964.5,868.5C 961.167,868.5 957.833,868.5 954.5,868.5C 954.5,865.5 954.5,862.5 954.5,859.5 Z"/></g>
<g><path style="opacity:1" fill="#000000" d="M 913.5,867.5 C 919.167,867.5 924.833,867.5 930.5,867.5C 930.5,873.167 930.5,878.833 930.5,884.5C 927.5,884.5 924.5,884.5 921.5,884.5C 921.5,881.833 921.5,879.167 921.5,876.5C 918.833,876.5 916.167,876.5 913.5,876.5C 913.5,873.5 913.5,870.5 913.5,867.5 Z"/></g>
<g><path style="opacity:1" fill="#000000" d="M 963.5,884.5 C 966.5,884.5 969.5,884.5 972.5,884.5C 972.5,887.167 972.5,889.833 972.5,892.5C 975.167,892.5 977.833,892.5 980.5,892.5C 980.5,898.167 980.5,903.833 980.5,909.5C 977.5,909.5 974.5,909.5 971.5,909.5C 971.5,904.167 971.5,898.833 971.5,893.5C 969.167,893.5 966.833,893.5 964.5,893.5C 964.5,896.167 964.5,898.833 964.5,901.5C 961.167,901.5 957.833,901.5 954.5,901.5C 954.5,898.5 954.5,895.5 954.5,892.5C 957.5,892.5 960.5,892.5 963.5,892.5C 963.5,889.833 963.5,887.167 963.5,884.5 Z"/></g>
<g><path style="opacity:1" fill="#000000" d="M 929.5,892.5 C 932.833,892.5 936.167,892.5 939.5,892.5C 939.5,898.167 939.5,903.833 939.5,909.5C 936.167,909.5 932.833,909.5 929.5,909.5C 929.5,903.833 929.5,898.167 929.5,892.5 Z"/></g>
<g><path style="opacity:1" fill="#000000" d="M 921.5,917.5 C 924.5,917.5 927.5,917.5 930.5,917.5C 930.5,920.5 930.5,923.5 930.5,926.5C 927.5,926.5 924.5,926.5 921.5,926.5C 921.5,923.5 921.5,920.5 921.5,917.5 Z"/></g>
<g><path style="opacity:1" fill="#000000" d="M 946.5,917.5 C 949.5,917.5 952.5,917.5 955.5,917.5C 955.5,920.5 955.5,923.5 955.5,926.5C 952.5,926.5 949.5,926.5 946.5,926.5C 946.5,923.5 946.5,920.5 946.5,917.5 Z"/></g>
<g><path style="opacity:1" fill="#000000" d="M 315.5,1050.5 C 333.579,1047.92 341.746,1055.59 340,1073.5C 337.078,1081.56 331.244,1085.56 322.5,1085.5C 308.984,1083.83 303.15,1076.17 305,1062.5C 306.936,1057.07 310.436,1053.07 315.5,1050.5 Z"/></g>
<g><path style="opacity:1" fill="#000000" d="M 1479.5,1050.5 C 1498.6,1047.77 1506.77,1055.77 1504,1074.5C 1498.5,1084.22 1490.33,1087.38 1479.5,1084C 1469.91,1078.84 1466.74,1071.01 1470,1060.5C 1472.02,1055.98 1475.19,1052.65 1479.5,1050.5 Z"/></g>
<g><path style="opacity:1" fill="#000000" d="M 90.5,1053.5 C 151.833,1053.5 213.167,1053.5 274.5,1053.5C 274.5,1062.17 274.5,1070.83 274.5,1079.5C 249.167,1079.5 223.833,1079.5 198.5,1079.5C 198.5,1150.17 198.5,1220.83 198.5,1291.5C 187.833,1291.5 177.167,1291.5 166.5,1291.5C 166.5,1220.83 166.5,1150.17 166.5,1079.5C 141.167,1079.5 115.833,1079.5 90.5,1079.5C 90.5,1070.83 90.5,1062.17 90.5,1053.5 Z"/></g>
<g><path style="opacity:1" fill="#000000" d="M 971.5,1053.5 C 1021.5,1053.5 1071.5,1053.5 1121.5,1053.5C 1121.5,1062.17 1121.5,1070.83 1121.5,1079.5C 1082.5,1079.5 1043.5,1079.5 1004.5,1079.5C 1004.5,1104.83 1004.5,1130.17 1004.5,1155.5C 1038.5,1155.5 1072.5,1155.5 1106.5,1155.5C 1106.5,1164.17 1106.5,1172.83 1106.5,1181.5C 1072.5,1181.5 1038.5,1181.5 1004.5,1181.5C 1004.5,1209.17 1004.5,1236.83 1004.5,1264.5C 1044.17,1264.5 1083.83,1264.5 1123.5,1264.5C 1123.5,1273.5 1123.5,1282.5 1123.5,1291.5C 1072.83,1291.5 1022.17,1291.5 971.5,1291.5C 971.5,1212.17 971.5,1132.83 971.5,1053.5 Z"/></g>
<g><path style="opacity:1" fill="#000000" d="M 1254.5,1053.5 C 1315.83,1053.5 1377.17,1053.5 1438.5,1053.5C 1438.5,1062.17 1438.5,1070.83 1438.5,1079.5C 1413.17,1079.5 1387.83,1079.5 1362.5,1079.5C 1362.5,1150.17 1362.5,1220.83 1362.5,1291.5C 1351.83,1291.5 1341.17,1291.5 1330.5,1291.5C 1330.5,1220.83 1330.5,1150.17 1330.5,1079.5C 1305.17,1079.5 1279.83,1079.5 1254.5,1079.5C 1254.5,1070.83 1254.5,1062.17 1254.5,1053.5 Z"/></g>
<g><path style="opacity:1" fill="#000000" d="M 464.5,1110.5 C 487.608,1109.22 505.275,1118.22 517.5,1137.5C 537.771,1114.25 563.105,1106.09 593.5,1113C 616.902,1120.09 629.735,1135.92 632,1160.5C 632.5,1204.17 632.667,1247.83 632.5,1291.5C 622.167,1291.5 611.833,1291.5 601.5,1291.5C 601.974,1247.46 601.474,1203.46 600,1159.5C 594.413,1143.27 582.913,1135.94 565.5,1137.5C 545.615,1137.36 532.449,1146.69 526,1165.5C 524.522,1207.45 524.022,1249.45 524.5,1291.5C 514.167,1291.5 503.833,1291.5 493.5,1291.5C 493.968,1248.13 493.468,1204.8 492,1161.5C 486.345,1144.32 474.345,1136.32 456,1137.5C 438.002,1136.86 425.002,1144.52 417,1160.5C 416.5,1204.17 416.333,1247.83 416.5,1291.5C 406.167,1291.5 395.833,1291.5 385.5,1291.5C 385.5,1232.5 385.5,1173.5 385.5,1114.5C 395.167,1114.5 404.833,1114.5 414.5,1114.5C 414.283,1120.23 414.783,1125.9 416,1131.5C 429.433,1118.03 445.6,1111.03 464.5,1110.5 Z"/></g>
<g><path style="opacity:1" fill="#000000" d="M 745.5,1110.5 C 789.411,1112.57 813.911,1135.57 819,1179.5C 819.754,1190.16 820.254,1200.82 820.5,1211.5C 780.833,1211.5 741.167,1211.5 701.5,1211.5C 701.421,1235.53 711.754,1253.36 732.5,1265C 759.247,1273.86 781.413,1267.36 799,1245.5C 805.246,1249.24 811.079,1253.57 816.5,1258.5C 817.583,1259.36 817.749,1260.36 817,1261.5C 794.736,1289.7 765.902,1299.87 730.5,1292C 698.372,1283.54 678.872,1263.04 672,1230.5C 667.463,1205.13 669.797,1180.47 679,1156.5C 692.43,1128.38 714.596,1113.05 745.5,1110.5 Z M 740.5,1136.5 C 760.979,1133.98 775.479,1141.98 784,1160.5C 786.922,1168.94 788.755,1177.61 789.5,1186.5C 760.165,1186.67 730.831,1186.5 701.5,1186C 703.44,1172.96 708.273,1161.12 716,1150.5C 722.838,1143.34 731.005,1138.67 740.5,1136.5 Z"/></g>
<g><path style="opacity:1" fill="#000000" d="M 924.5,1110.5 C 929.837,1110.81 935.004,1111.81 940,1113.5C 940.5,1122.83 940.666,1132.16 940.5,1141.5C 928.962,1139.63 917.628,1140.47 906.5,1144C 897,1148.17 890.167,1155 886,1164.5C 885.5,1206.83 885.333,1249.17 885.5,1291.5C 875.167,1291.5 864.833,1291.5 854.5,1291.5C 854.5,1232.5 854.5,1173.5 854.5,1114.5C 864.5,1114.5 874.5,1114.5 884.5,1114.5C 884.334,1120.51 884.501,1126.51 885,1132.5C 894.674,1118.75 907.841,1111.42 924.5,1110.5 Z"/></g>
<g><path style="opacity:1" fill="#000000" d="M 1226.5,1110.5 C 1231.85,1111.07 1237.18,1111.74 1242.5,1112.5C 1242.5,1122.17 1242.5,1131.83 1242.5,1141.5C 1228.01,1138.69 1214.35,1140.86 1201.5,1148C 1195.5,1152.67 1191,1158.5 1188,1165.5C 1187.5,1207.5 1187.33,1249.5 1187.5,1291.5C 1177.17,1291.5 1166.83,1291.5 1156.5,1291.5C 1156.5,1232.5 1156.5,1173.5 1156.5,1114.5C 1166.5,1114.5 1176.5,1114.5 1186.5,1114.5C 1187.14,1120.48 1187.64,1126.48 1188,1132.5C 1197.16,1118.73 1209.99,1111.39 1226.5,1110.5 Z"/></g>
<g><path style="opacity:1" fill="#000000" d="M 1628.5,1110.5 C 1645.96,1109.65 1661.12,1114.98 1674,1126.5C 1676.67,1130.5 1679.33,1134.5 1682,1138.5C 1695.9,1119.88 1714.57,1110.55 1738,1110.5C 1774.88,1111.04 1794.54,1129.71 1797,1166.5C 1797.5,1208.17 1797.67,1249.83 1797.5,1291.5C 1787.17,1291.5 1776.83,1291.5 1766.5,1291.5C 1766.96,1248.14 1766.46,1204.81 1765,1161.5C 1759.87,1143.99 1748.03,1135.99 1729.5,1137.5C 1706.75,1137.75 1693.25,1149.08 1689,1171.5C 1688.5,1211.5 1688.33,1251.5 1688.5,1291.5C 1678.17,1291.5 1667.83,1291.5 1657.5,1291.5C 1657.97,1247.79 1657.47,1204.13 1656,1160.5C 1650.17,1143.87 1638.34,1136.21 1620.5,1137.5C 1602.41,1136.79 1589.24,1144.46 1581,1160.5C 1580.5,1204.17 1580.33,1247.83 1580.5,1291.5C 1570.17,1291.5 1559.83,1291.5 1549.5,1291.5C 1549.5,1232.5 1549.5,1173.5 1549.5,1114.5C 1559.17,1114.5 1568.83,1114.5 1578.5,1114.5C 1579.14,1120.48 1579.64,1126.48 1580,1132.5C 1593.05,1118.23 1609.21,1110.89 1628.5,1110.5 Z"/></g>
<g><path style="opacity:1" fill="#000000" d="M 306.5,1114.5 C 316.833,1114.5 327.167,1114.5 337.5,1114.5C 337.5,1173.5 337.5,1232.5 337.5,1291.5C 327.167,1291.5 316.833,1291.5 306.5,1291.5C 306.5,1232.5 306.5,1173.5 306.5,1114.5 Z"/></g>
<g><path style="opacity:1" fill="#000000" d="M 1471.5,1114.5 C 1481.83,1114.5 1492.17,1114.5 1502.5,1114.5C 1502.5,1173.5 1502.5,1232.5 1502.5,1291.5C 1492.17,1291.5 1481.83,1291.5 1471.5,1291.5C 1471.5,1232.5 1471.5,1173.5 1471.5,1114.5 Z"/></g>
</svg>