<svg xmlns="http://www.w3.org/2000/svg" xmlns:xlink="http://www.w3.org/1999/xlink" version="1.1" style="shape-rendering:geometricPrecision; text-rendering:geometricPrecision; image-rendering:optimizeQuality; fill-rule:evenodd; clip-rule:evenodd" viewBox="-0.5 -0.5 2418 2418">
<g><path style="opacity:1" fill="#0c0c19" d="M -0.5,-0.5 C 805.5,-0.5 1611.5,-0.5 2417.5,-0.5C 2417.5,805.5 2417.5,1611.5 2417.5,2417.5C 1611.5,2417.5 805.5,2417.5 -0.5,2417.5C -0.5,1611.5 -0.5,805.5 -0.5,-0.5 Z"/></g>
<g><path style="opacity:1" fill="#69ccbf" d="M 1166.5,121.5 C 1440.92,114.359 1684.58,196.192 1897.5,367C 2113.41,547.895 2242.91,778.395 2286,1058.5C 2321.17,1340.15 2259.17,1597.81 2100,1831.5C 1937.38,2058.65 1719.55,2204.82 1446.5,2270C 1232.52,2316.39 1023.18,2301.06 818.5,2224C 598.737,2136.89 423.904,1994.72 294,1797.5C 150.166,1568.44 96.166,1319.44 132,1050.5C 176.453,773.668 305.62,545.834 519.5,367C 707.815,214.911 923.482,133.078 1166.5,121.5 Z"/></g>
<g><path style="opacity:1" fill="#0c0c19" d="M 1180.5,155.5 C 1413.72,151.948 1625.72,216.448 1816.5,349C 2023.35,498.653 2160.52,697.153 2228,944.5C 2291.65,1204.02 2263.65,1453.02 2144,1691.5C 2043.64,1882.2 1899.14,2029.7 1710.5,2134C 1467.22,2262.07 1211.89,2293.4 944.5,2228C 703.285,2162.38 508.119,2029.88 359,1830.5C 207.851,1619.31 141.184,1383.64 159,1123.5C 183.845,857.676 291.345,632.176 481.5,447C 677.751,263.694 910.751,166.528 1180.5,155.5 Z"/></g>
<g><path style="opacity:1" fill="#69cdc0" d="M 595.5,555.5 C 630.208,554.913 664.875,555.746 699.5,558C 840.5,573.672 914,652.506 920,794.5C 920.333,866.5 920.667,938.5 921,1010.5C 922.078,1035.14 927.412,1058.81 937,1081.5C 952.018,1108.85 974.185,1128.01 1003.5,1139C 1027.82,1147.33 1052.82,1152.33 1078.5,1154C 1095.5,1154.5 1112.5,1154.67 1129.5,1154.5C 1129.5,1184.17 1129.5,1213.83 1129.5,1243.5C 1115.99,1243.17 1102.66,1243.5 1089.5,1244.5C 1055.49,1244.21 1022.49,1249.71 990.5,1261C 951.19,1278.41 929.023,1308.58 924,1351.5C 923.06,1359.51 922.06,1367.51 921,1375.5C 920.959,1484.51 920.292,1593.51 919,1702.5C 915.91,1743.3 905.243,1781.96 887,1818.5C 859.719,1863.43 820.885,1893.93 770.5,1910C 737.258,1920.07 703.258,1925.74 668.5,1927C 644.169,1927.5 619.836,1927.67 595.5,1927.5C 595.5,1897.5 595.5,1867.5 595.5,1837.5C 612.675,1837.83 629.675,1837.5 646.5,1836.5C 678.857,1835.8 709.523,1828.3 738.5,1814C 773.702,1793.14 795.869,1762.64 805,1722.5C 808.035,1709.99 810.035,1697.33 811,1684.5C 811.333,1585.83 811.667,1487.17 812,1388.5C 812.61,1349.39 822.276,1312.73 841,1278.5C 862.976,1245.55 893.143,1223.71 931.5,1213C 941.686,1210.04 952.019,1207.87 962.5,1206.5C 963.493,1201.88 963.827,1197.21 963.5,1192.5C 881.436,1183.93 832.269,1139.27 816,1058.5C 813.684,1045.92 812.018,1033.25 811,1020.5C 810.667,947.5 810.333,874.5 810,801.5C 800.846,700.849 745.679,649.183 644.5,646.5C 628.342,645.504 612.009,645.17 595.5,645.5C 595.5,615.5 595.5,585.5 595.5,555.5 Z"/></g>
<g><path style="opacity:1" fill="#69cdc0" d="M 1821.5,555.5 C 1821.5,585.5 1821.5,615.5 1821.5,645.5C 1804.99,645.17 1788.66,645.504 1772.5,646.5C 1736.5,646.748 1702.84,655.581 1671.5,673C 1641.86,692.748 1622.36,719.915 1613,754.5C 1610.25,765.353 1608.25,776.353 1607,787.5C 1605.7,860.481 1605.03,933.481 1605,1006.5C 1604.55,1044.51 1595.88,1080.51 1579,1114.5C 1558.35,1149.46 1528.52,1172.96 1489.5,1185C 1477.62,1188.14 1465.62,1190.64 1453.5,1192.5C 1453.5,1197.17 1453.5,1201.83 1453.5,1206.5C 1535.73,1214.24 1584.9,1258.57 1601,1339.5C 1603.42,1352.74 1605.08,1366.08 1606,1379.5C 1606.33,1479.5 1606.67,1579.5 1607,1679.5C 1615.07,1780.73 1669.9,1833.07 1771.5,1836.5C 1787.99,1837.5 1804.66,1837.83 1821.5,1837.5C 1821.5,1867.5 1821.5,1897.5 1821.5,1927.5C 1791.48,1927.84 1761.48,1927.34 1731.5,1926C 1581.71,1915.55 1503.55,1835.38 1497,1685.5C 1496.67,1584.83 1496.33,1484.17 1496,1383.5C 1494.55,1365.75 1491.22,1348.42 1486,1331.5C 1472.86,1297.03 1449.03,1273.19 1414.5,1260C 1386.05,1250.05 1356.72,1244.89 1326.5,1244.5C 1314.01,1243.5 1301.34,1243.17 1288.5,1243.5C 1288.5,1213.83 1288.5,1184.17 1288.5,1154.5C 1327.59,1155.9 1366.25,1152.74 1404.5,1145C 1428.24,1139.05 1448.74,1127.55 1466,1110.5C 1477.08,1097.33 1484.75,1082.33 1489,1065.5C 1491.65,1053.95 1493.65,1042.29 1495,1030.5C 1496.28,950.845 1496.95,871.178 1497,791.5C 1504.21,651.621 1577.38,573.788 1716.5,558C 1751.46,555.806 1786.46,554.973 1821.5,555.5 Z"/></g>
<g><path style="opacity:1" fill="#3d6f69" d="M 1821.5,555.5 C 1822.5,585.662 1822.83,615.995 1822.5,646.5C 1805.83,646.5 1789.17,646.5 1772.5,646.5C 1788.66,645.504 1804.99,645.17 1821.5,645.5C 1821.5,615.5 1821.5,585.5 1821.5,555.5 Z"/></g>
<g><path style="opacity:1" fill="#45807a" d="M 595.5,555.5 C 595.5,585.5 595.5,615.5 595.5,645.5C 612.009,645.17 628.342,645.504 644.5,646.5C 627.833,646.5 611.167,646.5 594.5,646.5C 594.169,615.995 594.502,585.662 595.5,555.5 Z"/></g>
<g><path style="opacity:1" fill="#e6f9f2" d="M 936.5,1024.5 C 1118.17,1024.5 1299.83,1024.5 1481.5,1024.5C 1480.45,1046.25 1475.29,1066.92 1466,1086.5C 1457.07,1101.43 1444.9,1112.93 1429.5,1121C 1409.48,1130.17 1388.48,1135.84 1366.5,1138C 1334.84,1138.5 1303.17,1138.67 1271.5,1138.5C 1271.5,1152.5 1271.5,1166.5 1271.5,1180.5C 1266.83,1180.5 1262.17,1180.5 1257.5,1180.5C 1257.5,1184.83 1257.5,1189.17 1257.5,1193.5C 1262.17,1193.5 1266.83,1193.5 1271.5,1193.5C 1271.5,1230.83 1271.5,1268.17 1271.5,1305.5C 1266.83,1305.5 1262.17,1305.5 1257.5,1305.5C 1257.5,1309.83 1257.5,1314.17 1257.5,1318.5C 1262.17,1318.5 1266.83,1318.5 1271.5,1318.5C 1271.5,1346.5 1271.5,1374.5 1271.5,1402.5C 1266.83,1402.5 1262.17,1402.5 1257.5,1402.5C 1257.5,1406.83 1257.5,1411.17 1257.5,1415.5C 1262.17,1415.5 1266.83,1415.5 1271.5,1415.5C 1271.5,1434.5 1271.5,1453.5 1271.5,1472.5C 1266.83,1472.5 1262.17,1472.5 1257.5,1472.5C 1257.5,1476.5 1257.5,1480.5 1257.5,1484.5C 1262.17,1484.5 1266.83,1484.5 1271.5,1484.5C 1271.5,1498.83 1271.5,1513.17 1271.5,1527.5C 1266.83,1527.5 1262.17,1527.5 1257.5,1527.5C 1257.5,1536.5 1257.5,1545.5 1257.5,1554.5C 1262.17,1554.5 1266.83,1554.5 1271.5,1554.5C 1271.5,1559.5 1271.5,1564.5 1271.5,1569.5C 1266.83,1569.5 1262.17,1569.5 1257.5,1569.5C 1257.5,1574.17 1257.5,1578.83 1257.5,1583.5C 1252.83,1583.5 1248.17,1583.5 1243.5,1583.5C 1243.5,1587.5 1243.5,1591.5 1243.5,1595.5C 1252.83,1595.5 1262.17,1595.5 1271.5,1595.5C 1271.5,1605.5 1271.5,1615.5 1271.5,1625.5C 1266.5,1625.5 1261.5,1625.5 1256.5,1625.5C 1256.5,1620.83 1256.5,1616.17 1256.5,1611.5C 1251.83,1611.5 1247.17,1611.5 1242.5,1611.5C 1242.5,1606.83 1242.5,1602.17 1242.5,1597.5C 1237.83,1597.5 1233.17,1597.5 1228.5,1597.5C 1228.5,1592.83 1228.5,1588.17 1228.5,1583.5C 1224.5,1583.5 1220.5,1583.5 1216.5,1583.5C 1216.5,1592.83 1216.5,1602.17 1216.5,1611.5C 1211.83,1611.5 1207.17,1611.5 1202.5,1611.5C 1202.5,1624.83 1202.5,1638.17 1202.5,1651.5C 1206.5,1651.5 1210.5,1651.5 1214.5,1651.5C 1214.5,1642.17 1214.5,1632.83 1214.5,1623.5C 1219.5,1623.5 1224.5,1623.5 1229.5,1623.5C 1229.5,1628.17 1229.5,1632.83 1229.5,1637.5C 1234.17,1637.5 1238.83,1637.5 1243.5,1637.5C 1243.5,1646.83 1243.5,1656.17 1243.5,1665.5C 1248.17,1665.5 1252.83,1665.5 1257.5,1665.5C 1257.5,1670.17 1257.5,1674.83 1257.5,1679.5C 1262.17,1679.5 1266.83,1679.5 1271.5,1679.5C 1271.5,1689.17 1271.5,1698.83 1271.5,1708.5C 1266.83,1708.5 1262.17,1708.5 1257.5,1708.5C 1257.5,1717.83 1257.5,1727.17 1257.5,1736.5C 1252.83,1736.5 1248.17,1736.5 1243.5,1736.5C 1243.5,1745.17 1243.5,1753.83 1243.5,1762.5C 1248.17,1762.5 1252.83,1762.5 1257.5,1762.5C 1257.5,1767.5 1257.5,1772.5 1257.5,1777.5C 1252.5,1777.5 1247.5,1777.5 1242.5,1777.5C 1242.5,1773.17 1242.5,1768.83 1242.5,1764.5C 1228.5,1764.5 1214.5,1764.5 1200.5,1764.5C 1200.5,1759.17 1200.5,1753.83 1200.5,1748.5C 1205.17,1748.5 1209.83,1748.5 1214.5,1748.5C 1214.5,1743.83 1214.5,1739.17 1214.5,1734.5C 1223.83,1734.5 1233.17,1734.5 1242.5,1734.5C 1242.5,1725.83 1242.5,1717.17 1242.5,1708.5C 1237.83,1708.5 1233.17,1708.5 1228.5,1708.5C 1228.5,1703.83 1228.5,1699.17 1228.5,1694.5C 1224.5,1694.5 1220.5,1694.5 1216.5,1694.5C 1216.5,1703.83 1216.5,1713.17 1216.5,1722.5C 1211.83,1722.5 1207.17,1722.5 1202.5,1722.5C 1202.5,1727.17 1202.5,1731.83 1202.5,1736.5C 1193.17,1736.5 1183.83,1736.5 1174.5,1736.5C 1174.5,1741.17 1174.5,1745.83 1174.5,1750.5C 1169.5,1750.5 1164.5,1750.5 1159.5,1750.5C 1159.5,1745.83 1159.5,1741.17 1159.5,1736.5C 1154.83,1736.5 1150.17,1736.5 1145.5,1736.5C 1145.5,1731.17 1145.5,1725.83 1145.5,1720.5C 1150.5,1720.5 1155.5,1720.5 1160.5,1720.5C 1160.5,1725.17 1160.5,1729.83 1160.5,1734.5C 1164.83,1734.5 1169.17,1734.5 1173.5,1734.5C 1173.5,1729.83 1173.5,1725.17 1173.5,1720.5C 1182.5,1720.5 1191.5,1720.5 1200.5,1720.5C 1200.5,1716.5 1200.5,1712.5 1200.5,1708.5C 1195.83,1708.5 1191.17,1708.5 1186.5,1708.5C 1186.5,1703.83 1186.5,1699.17 1186.5,1694.5C 1182.17,1694.5 1177.83,1694.5 1173.5,1694.5C 1173.5,1685.17 1173.5,1675.83 1173.5,1666.5C 1164.17,1666.5 1154.83,1666.5 1145.5,1666.5C 1145.5,1661.5 1145.5,1656.5 1145.5,1651.5C 1150.17,1651.5 1154.83,1651.5 1159.5,1651.5C 1159.5,1638.17 1159.5,1624.83 1159.5,1611.5C 1154.83,1611.5 1150.17,1611.5 1145.5,1611.5C 1145.5,1597.17 1145.5,1582.83 1145.5,1568.5C 1150.17,1568.5 1154.83,1568.5 1159.5,1568.5C 1159.5,1564.17 1159.5,1559.83 1159.5,1555.5C 1154.83,1555.5 1150.17,1555.5 1145.5,1555.5C 1145.5,1550.5 1145.5,1545.5 1145.5,1540.5C 1150.17,1540.5 1154.83,1540.5 1159.5,1540.5C 1159.5,1536.17 1159.5,1531.83 1159.5,1527.5C 1154.83,1527.5 1150.17,1527.5 1145.5,1527.5C 1145.5,1522.5 1145.5,1517.5 1145.5,1512.5C 1150.17,1512.5 1154.83,1512.5 1159.5,1512.5C 1159.5,1508.5 1159.5,1504.5 1159.5,1500.5C 1154.83,1500.5 1150.17,1500.5 1145.5,1500.5C 1145.5,1481.5 1145.5,1462.5 1145.5,1443.5C 1150.17,1443.5 1154.83,1443.5 1159.5,1443.5C 1159.5,1439.17 1159.5,1434.83 1159.5,1430.5C 1154.83,1430.5 1150.17,1430.5 1145.5,1430.5C 1145.5,1425.5 1145.5,1420.5 1145.5,1415.5C 1150.17,1415.5 1154.83,1415.5 1159.5,1415.5C 1159.5,1411.17 1159.5,1406.83 1159.5,1402.5C 1154.83,1402.5 1150.17,1402.5 1145.5,1402.5C 1145.5,1383.5 1145.5,1364.5 1145.5,1345.5C 1150.17,1345.5 1154.83,1345.5 1159.5,1345.5C 1159.5,1336.83 1159.5,1328.17 1159.5,1319.5C 1154.83,1319.5 1150.17,1319.5 1145.5,1319.5C 1145.5,1259.17 1145.5,1198.83 1145.5,1138.5C 1113.48,1138.91 1081.48,1138.41 1049.5,1137C 1021.87,1133.34 996.866,1123.34 974.5,1107C 950.643,1084.78 937.976,1057.28 936.5,1024.5 Z"/></g>
<g><path style="opacity:1" fill="#509d95" d="M 1288.5,1154.5 C 1288.5,1184.17 1288.5,1213.83 1288.5,1243.5C 1301.34,1243.17 1314.01,1243.5 1326.5,1244.5C 1313.5,1244.5 1300.5,1244.5 1287.5,1244.5C 1287.17,1214.33 1287.5,1184.33 1288.5,1154.5 Z"/></g>
<g><path style="opacity:1" fill="#498d83" d="M 1129.5,1154.5 C 1130.5,1184.33 1130.83,1214.33 1130.5,1244.5C 1116.83,1244.5 1103.17,1244.5 1089.5,1244.5C 1102.66,1243.5 1115.99,1243.17 1129.5,1243.5C 1129.5,1213.83 1129.5,1184.17 1129.5,1154.5 Z"/></g>
<g><path style="opacity:1" fill="#0b0c19" d="M 1174.5,1444.5 C 1178.5,1444.5 1182.5,1444.5 1186.5,1444.5C 1186.5,1448.83 1186.5,1453.17 1186.5,1457.5C 1182.5,1457.5 1178.5,1457.5 1174.5,1457.5C 1174.5,1453.17 1174.5,1448.83 1174.5,1444.5 Z"/></g>
<g><path style="opacity:1" fill="#0b0c19" d="M 1229.5,1541.5 C 1233.83,1541.5 1238.17,1541.5 1242.5,1541.5C 1242.5,1555.17 1242.5,1568.83 1242.5,1582.5C 1238.17,1582.5 1233.83,1582.5 1229.5,1582.5C 1229.5,1568.83 1229.5,1555.17 1229.5,1541.5 Z"/></g>
<g><path style="opacity:1" fill="#0b0c19" d="M 1202.5,1555.5 C 1206.5,1555.5 1210.5,1555.5 1214.5,1555.5C 1214.5,1564.5 1214.5,1573.5 1214.5,1582.5C 1210.5,1582.5 1206.5,1582.5 1202.5,1582.5C 1202.5,1573.5 1202.5,1564.5 1202.5,1555.5 Z"/></g>
<g><path style="opacity:1" fill="#0b0c19" d="M 1160.5,1583.5 C 1164.83,1583.5 1169.17,1583.5 1173.5,1583.5C 1173.5,1588.17 1173.5,1592.83 1173.5,1597.5C 1182.5,1597.5 1191.5,1597.5 1200.5,1597.5C 1200.5,1601.5 1200.5,1605.5 1200.5,1609.5C 1187.17,1609.5 1173.83,1609.5 1160.5,1609.5C 1160.5,1600.83 1160.5,1592.17 1160.5,1583.5 Z"/></g>
<g><path style="opacity:1" fill="#0b0c19" d="M 1188.5,1652.5 C 1192.5,1652.5 1196.5,1652.5 1200.5,1652.5C 1200.5,1666.17 1200.5,1679.83 1200.5,1693.5C 1196.5,1693.5 1192.5,1693.5 1188.5,1693.5C 1188.5,1679.83 1188.5,1666.17 1188.5,1652.5 Z"/></g>
<g><path style="opacity:1" fill="#0b0c19" d="M 1229.5,1666.5 C 1233.83,1666.5 1238.17,1666.5 1242.5,1666.5C 1242.5,1671.17 1242.5,1675.83 1242.5,1680.5C 1247.17,1680.5 1251.83,1680.5 1256.5,1680.5C 1256.5,1684.83 1256.5,1689.17 1256.5,1693.5C 1247.5,1693.5 1238.5,1693.5 1229.5,1693.5C 1229.5,1684.5 1229.5,1675.5 1229.5,1666.5 Z"/></g>
<g><path style="opacity:1" fill="#e6faf2" d="M 1173.5,1762.5 C 1178.5,1762.5 1183.5,1762.5 1188.5,1762.5C 1188.5,1767.17 1188.5,1771.83 1188.5,1776.5C 1193.17,1776.5 1197.83,1776.5 1202.5,1776.5C 1202.5,1781.5 1202.5,1786.5 1202.5,1791.5C 1197.17,1791.5 1191.83,1791.5 1186.5,1791.5C 1186.5,1786.83 1186.5,1782.17 1186.5,1777.5C 1182.17,1777.5 1177.83,1777.5 1173.5,1777.5C 1173.5,1772.5 1173.5,1767.5 1173.5,1762.5 Z"/></g>
<g><path style="opacity:1" fill="#e6faf2" d="M 1214.5,1776.5 C 1219.5,1776.5 1224.5,1776.5 1229.5,1776.5C 1229.5,1781.5 1229.5,1786.5 1229.5,1791.5C 1224.5,1791.5 1219.5,1791.5 1214.5,1791.5C 1214.5,1786.5 1214.5,1781.5 1214.5,1776.5 Z"/></g>
<g><path style="opacity:1" fill="#e6faf2" d="M 1145.5,1790.5 C 1155.17,1790.5 1164.83,1790.5 1174.5,1790.5C 1174.5,1800.17 1174.5,1809.83 1174.5,1819.5C 1169.5,1819.5 1164.5,1819.5 1159.5,1819.5C 1159.5,1814.83 1159.5,1810.17 1159.5,1805.5C 1154.83,1805.5 1150.17,1805.5 1145.5,1805.5C 1145.5,1800.5 1145.5,1795.5 1145.5,1790.5 Z"/></g>
<g><path style="opacity:1" fill="#e6faf2" d="M 1228.5,1818.5 C 1233.5,1818.5 1238.5,1818.5 1243.5,1818.5C 1243.5,1823.17 1243.5,1827.83 1243.5,1832.5C 1248.17,1832.5 1252.83,1832.5 1257.5,1832.5C 1257.5,1842.17 1257.5,1851.83 1257.5,1861.5C 1252.5,1861.5 1247.5,1861.5 1242.5,1861.5C 1242.5,1852.17 1242.5,1842.83 1242.5,1833.5C 1238.17,1833.5 1233.83,1833.5 1229.5,1833.5C 1229.5,1838.17 1229.5,1842.83 1229.5,1847.5C 1224.5,1847.5 1219.5,1847.5 1214.5,1847.5C 1214.5,1842.5 1214.5,1837.5 1214.5,1832.5C 1219.17,1832.5 1223.83,1832.5 1228.5,1832.5C 1228.5,1827.83 1228.5,1823.17 1228.5,1818.5 Z"/></g>
<g><path style="opacity:1" fill="#e6faf2" d="M 1173.5,1832.5 C 1178.5,1832.5 1183.5,1832.5 1188.5,1832.5C 1188.5,1842.17 1188.5,1851.83 1188.5,1861.5C 1183.5,1861.5 1178.5,1861.5 1173.5,1861.5C 1173.5,1851.83 1173.5,1842.17 1173.5,1832.5 Z"/></g>
<g><path style="opacity:1" fill="#4c918b" d="M 646.5,1836.5 C 629.675,1837.5 612.675,1837.83 595.5,1837.5C 595.5,1867.5 595.5,1897.5 595.5,1927.5C 594.502,1897.34 594.169,1867 594.5,1836.5C 611.833,1836.5 629.167,1836.5 646.5,1836.5 Z"/></g>
<g><path style="opacity:1" fill="#3e716b" d="M 1771.5,1836.5 C 1788.5,1836.5 1805.5,1836.5 1822.5,1836.5C 1822.83,1867 1822.5,1897.34 1821.5,1927.5C 1821.5,1897.5 1821.5,1867.5 1821.5,1837.5C 1804.66,1837.83 1787.99,1837.5 1771.5,1836.5 Z"/></g>
<g><path style="opacity:1" fill="#e6faf2" d="M 1159.5,1873.5 C 1164.5,1873.5 1169.5,1873.5 1174.5,1873.5C 1174.5,1878.83 1174.5,1884.17 1174.5,1889.5C 1169.5,1889.5 1164.5,1889.5 1159.5,1889.5C 1159.5,1884.17 1159.5,1878.83 1159.5,1873.5 Z"/></g>
<g><path style="opacity:1" fill="#e6faf2" d="M 1200.5,1873.5 C 1205.83,1873.5 1211.17,1873.5 1216.5,1873.5C 1216.5,1878.83 1216.5,1884.17 1216.5,1889.5C 1211.17,1889.5 1205.83,1889.5 1200.5,1889.5C 1200.5,1884.17 1200.5,1878.83 1200.5,1873.5 Z"/></g>
</svg>